<?xml version="1.0" encoding="UTF-8" standalone="no"?>
<!-- Created with Inkscape (http://www.inkscape.org/) -->

<svg
   xmlns:dc="http://purl.org/dc/elements/1.1/"
   xmlns:cc="http://creativecommons.org/ns#"
   xmlns:rdf="http://www.w3.org/1999/02/22-rdf-syntax-ns#"
   xmlns:svg="http://www.w3.org/2000/svg"
   xmlns="http://www.w3.org/2000/svg"
   xmlns:sodipodi="http://sodipodi.sourceforge.net/DTD/sodipodi-0.dtd"
   xmlns:inkscape="http://www.inkscape.org/namespaces/inkscape"
   version="1.1"
   id="svg4485"
   width="2069.5579"
   height="1164.1263"
   viewBox="0 0 2069.5579 1164.1263"
   sodipodi:docname="pbw_baner.svg"
   inkscape:version="0.92.1 r15371">
  <metadata
     id="metadata4491">
    <rdf:RDF>
      <cc:Work
         rdf:about="">
        <dc:format>image/svg+xml</dc:format>
        <dc:type
           rdf:resource="http://purl.org/dc/dcmitype/StillImage" />
        <dc:title></dc:title>
      </cc:Work>
    </rdf:RDF>
  </metadata>
  <defs
     id="defs4489">
    <pattern
       y="0"
       x="0"
       height="6"
       width="6"
       patternUnits="userSpaceOnUse"
       id="EMFhbasepattern" />
  </defs>
  <sodipodi:namedview
     pagecolor="#ffffff"
     bordercolor="#666666"
     borderopacity="1"
     objecttolerance="10"
     gridtolerance="10"
     guidetolerance="10"
     inkscape:pageopacity="0"
     inkscape:pageshadow="2"
     inkscape:window-width="1920"
     inkscape:window-height="1017"
     id="namedview4487"
     showgrid="false"
     inkscape:zoom="1.4142136"
     inkscape:cx="1148.0866"
     inkscape:cy="632.34391"
     inkscape:window-x="-8"
     inkscape:window-y="-8"
     inkscape:window-maximized="1"
     inkscape:current-layer="svg4485" />
  <path
     id="path4516"
     d="m 1454.95,435.98955 h -10.0241 v 0.97613 h -11.0377 v 1.01367 h -6.0445 v 1.01367 h -8.0342 v 1.98979 h -1.0137 v 2.02734 h -0.9761 v 1.9898 h -1.0137 v 2.02734 h -1.0137 v 3.00346 h -0.9761 v 1.01367 h -1.0137 v 3.00347 h -1.0136 v 1.01366 h -1.0137 v 1.9898 h -0.9761 v 2.02734 h -1.0137 v 0.97612 h -1.0137 v 2.02734 h -1.0136 v 1.9898 h -0.9762 v 1.01367 h -1.0136 v 1.98979 h -1.0137 v 1.01367 h -1.0137 v 1.01367 h -0.9761 v 1.9898 h -1.0137 v 1.01367 h -1.0136 v 1.01367 h -1.0137 v 1.98979 h -0.9761 v 1.01367 h -1.0137 v 1.01367 h -1.0137 v 1.01367 h -0.9761 v 0.97612 h -1.0137 v 2.02734 h -1.0136 v 0.97613 h -1.0137 v 1.01367 h -0.9761 v 1.01367 h -1.0137 v 1.01367 h -1.0137 v 0.97612 h -1.0136 v 1.01367 h -0.9762 v 1.01367 h -1.0136 v 1.01367 h -1.0137 v 0.97613 h -1.0137 v 1.01367 h -0.9761 v 1.01367 h -1.0137 v 1.01366 h -2.0273 v 0.97613 h -0.9761 v 1.01367 h -1.0137 v 1.01367 h -1.0137 v 1.01367 h -0.9761 v 0.97612 h -2.0273 v 1.01367 h -1.0137 v 1.01367 h -0.9761 v 0.97613 h -2.0274 v 1.01367 h -1.0136 v 1.01367 h -0.9762 v 1.01367 h -2.0273 v 0.97612 h -1.9898 v 1.01367 h -1.0137 v 1.01367 h -2.0273 v 1.01367 h -0.9761 v 0.97613 h -1.0137 v 4.01713 h 1.0137 v 7.0206 h 0.9761 v 4.01713 h 1.0137 v 6.04448 h 1.0136 v 4.01713 h 1.0137 v 4.01714 h 0.9761 v 3.00346 h 1.0137 v 4.01714 h 1.0137 v 5.0308 h 1.0136 v 1.98979 h 0.9762 v 4.01714 h 1.0136 v 3.00346 h 1.0137 v 3.00347 h 1.0137 v 2.02734 h 0.9761 v 4.01713 h 1.0137 v 3.00346 h 1.0136 v 2.02734 h 1.0137 v 3.00347 h 0.9761 v 1.98979 h 1.0137 v 3.00347 h 1.0137 v 2.02734 h 0.9761 v 3.00346 h 1.0137 v 2.02734 h 1.0136 v 1.98979 h 1.0137 v 3.00347 h 0.9761 v 2.02734 h 1.0137 v 1.98979 h 1.0137 v 2.02734 h 1.0136 v 1.9898 h 0.9762 v 2.02734 h 1.0136 v 1.98979 h 1.0137 v 2.02734 h 1.0137 v 1.98979 h 0.9761 v 2.02734 h 1.0137 v 0.97613 h 1.0136 v 2.02734 h 1.0137 v 1.98979 h 0.9761 v 2.02734 h 1.0137 v 0.97613 h 1.0137 v 2.02734 h 0.9761 v 1.98979 h 1.0137 v 1.01367 h 1.0136 v 2.02734 h 1.0137 v 1.98979 h 0.9761 v 1.01367 h 1.0137 v 1.9898 h 1.0137 v 1.01367 h 1.0136 v 1.98979 h 0.9762 v 1.01367 h 1.0136 v 2.02734 h 1.0137 v 0.97613 h 1.0137 v 1.01367 h 0.9761 v 2.02734 h 1.0137 v 0.97612 h 1.0136 v 2.02734 h 1.0137 v 1.01367 h 0.9761 v 0.97612 h 1.0137 v 1.01367 h 1.0137 v 2.02734 h 0.9761 v 0.97613 h 1.0137 v 1.01367 h 1.0136 v 1.98979 h 1.0137 v 1.01367 h 0.9761 v 1.01367 h 1.0137 v 1.01367 h 1.0137 v 0.97613 h 1.0136 v 2.02734 h 0.9762 v 1.01367 h 1.0136 v 0.97612 h 1.0137 v 1.01367 h 1.0137 v 1.01367 h 0.9761 v 1.01367 h 1.0137 v 0.97612 h 1.0136 v 1.01367 h 1.0137 v 1.01367 h 0.9761 v 1.01367 h 1.0137 v 0.97613 h 1.0137 v 1.01367 h 0.9761 v 1.01367 h 1.0137 v 0.97612 h 1.0136 v 1.01367 h 1.0137 v 1.01367 h 0.9761 v 1.01367 h 1.0137 v 0.97613 h 1.0137 v 1.01367 h 1.0136 v 1.01367 h 0.9762 v 1.01367 h 1.0136 v 0.97612 h 1.0137 v 1.01367 h 1.0137 v 1.01367 h 0.9761 v 1.01367 h 1.0137 v 0.97612 h 2.0273 v 1.01367 h 0.9761 v 1.01367 h 1.0137 v 1.01367 h 1.0137 v 0.97613 h 1.9898 v 1.01367 h 1.0136 v 1.01367 h 1.0137 v 0.97612 h 0.9761 v 1.01367 h 2.0274 v 1.01367 h 1.0136 v 1.01367 h 0.9762 v 0.97613 h 2.0273 v 1.01367 h 1.0137 v 1.01367 h 1.9898 v 1.01367 h 1.0136 v 0.97612 h 1.0137 v 1.01367 h 1.9898 v 1.01367 h 1.9898 v 1.01367 h 1.0137 v 0.97612 h 2.0273 v 1.01367 h 0.9761 v 1.01367 h 2.0274 v 1.01367 h 1.9898 v 0.97613 h 2.0273 v 1.01367 h 1.0137 v 1.01367 h 1.9898 v 0.97612 h 2.0273 v 1.01367 h 3.9796 v -1.01367 h 1.0137 v -0.97612 h 2.0273 v -1.01367 h 1.9898 v -1.01367 h 2.0273 v -0.97613 h 0.9762 v -1.01367 h 2.0273 v -1.01367 h 1.9898 v -1.01367 h 1.0137 v -0.97612 h 2.0273 v -1.01367 h 0.9761 v -1.01367 h 2.0274 v -1.01367 h 0.9761 v -0.97612 h 2.0273 v -1.01367 h 1.0137 v -1.01367 h 1.9898 v -1.01367 h 1.0137 v -0.97613 h 1.0136 v -1.01367 h 1.9898 v -1.01367 h 1.0137 v -1.01367 h 1.0137 v -0.97612 h 1.9898 v -1.01367 h 1.0136 v -1.01367 h 1.0137 v -0.97613 h 0.9761 v -1.01367 h 2.0274 v -1.01367 h 0.9761 v -1.01367 h 1.0137 v -0.97612 h 1.0136 v -1.01367 h 1.0137 v -1.01367 h 0.9761 v -1.01367 h 1.0137 v -0.97612 h 2.0273 v -1.01367 h 0.9762 v -1.01367 h 1.0136 v -1.01367 h 1.0137 v -0.97613 h 1.0137 v -1.01367 h 0.9761 v -1.01367 h 1.0137 v -1.01367 h 1.0136 v -0.97612 h 1.0137 v -1.01367 h 0.9761 v -1.01367 h 1.0137 v -0.97613 h 1.0137 v -1.01367 h 0.9761 v -1.01367 h 1.0137 v -1.01367 h 1.0136 v -1.98979 h 1.0137 v -1.01367 h 0.9761 v -1.01367 h 1.0137 v -0.97612 h 1.0137 v -1.01367 h 1.0136 v -1.01367 h 0.9762 v -1.01367 h 1.0136 v -0.97613 h 1.0137 v -2.02734 h 1.0137 v -1.01367 h 0.9761 v -0.97612 h 1.0137 v -1.01367 h 1.0136 v -1.9898 h 1.0137 v -1.01367 h 0.9761 v -1.01367 h 1.0137 v -1.01367 h 1.0137 v -1.98979 h 0.9761 v -1.01367 h 1.0137 v -1.98979 h 1.0136 v -1.01367 h 1.0137 v -1.01367 h 0.9761 v -1.9898 h 1.0137 v -1.01367 h 1.0137 v -2.02734 h 1.0136 v -0.97612 h 0.9762 v -2.02734 h 1.0136 v -0.97613 h 1.0137 v -2.02734 h 1.0137 v -1.01367 h 0.9761 v -1.98979 h 1.0137 v -2.02734 h 1.0136 v -0.97612 h 1.0137 v -2.02734 h 0.9761 v -1.9898 h 1.0137 v -1.01367 h 1.0137 v -2.02734 h 0.9761 v -1.98979 h 1.0137 v -1.9898 h 1.0136 v -1.01367 h 1.0137 v -2.02734 h 0.9761 v -1.98979 h 1.0137 v -2.02734 h 1.0137 v -1.98979 h 1.0136 v -2.02734 h 0.9762 v -1.9898 h 1.0136 v -2.02734 h 1.0137 v -1.98979 h 1.0137 v -3.00347 h 0.9761 v -2.02734 h 1.0137 v -1.98979 h 1.0136 v -2.02734 h 1.0137 v -3.00346 h 0.9761 v -1.9898 h 1.0137 v -3.04101 h 1.0136 v -3.00346 h 0.9761 v -1.9898 h 1.0137 v -3.00346 h 1.0137 v -3.04101 h 1.0137 v -3.00346 h 0.9761 v -1.9898 h 1.0136 v -4.01713 h 1.0137 v -4.01714 h 1.0137 v -2.02734 h 0.9761 v -4.01713 h -4.9932 v -0.97612 h -10.0616 v -1.01367 h -4.0171 v -1.01367 h -16.031 v 2.02734 h -1.0137 v 1.98979 h -1.0137 v 3.00346 h -1.0136 v 3.04101 h -0.9762 v 1.9898 h -1.0136 v 3.00346 h -1.0137 v 2.02734 h -1.0137 v 3.00347 h -0.9761 v 3.00346 h -1.0137 v 2.02734 h -1.0136 v 1.98979 h -1.0137 v 4.01714 h -0.9761 v 1.98979 h -1.0137 v 3.04101 h -1.0137 v 1.9898 h -0.9761 v 3.00346 h -1.0137 v 2.02734 h -1.0136 v 1.98979 h -1.0137 v 3.04101 h -0.9761 v 3.00347 h -1.0137 v 1.98979 h -1.0137 v 3.00347 h -1.0136 v 2.02734 h -0.9762 v 3.00346 h -1.0136 v 1.01367 h -1.0137 v 1.01367 h -4.0171 v -1.01367 h -1.0137 v -7.0206 h -0.9761 v -8.03427 h -1.0137 v -4.01713 h -1.0137 v -7.0206 h -0.9761 v -4.01713 h -2.0273 v 0.97612 h -1.0137 v 1.01367 h -0.9761 v 1.01367 h -1.0137 v 1.01367 h -1.0137 v 1.9898 h -1.0136 v 1.01367 h -0.9762 v 1.01367 h -1.0136 v 0.97612 h -1.0137 v 1.01367 h -1.0137 v 1.01367 h -0.9761 v 1.01367 h -1.0137 v 0.97612 h -1.0136 v 2.02734 h -1.0137 v 1.01367 h -0.9761 v 0.97613 h -1.0137 v 1.01367 h -1.0137 v 1.01367 h -0.9761 v 0.97612 h -1.0137 v 1.01367 h -1.0136 v 1.01367 h -1.0137 v 1.9898 h -0.9761 v 1.01367 h -1.0137 v 1.01367 h -1.0137 v 1.01367 h -1.0136 v 0.97612 h -0.9762 v 1.01367 h -1.0136 v 1.01367 h -1.0137 v 1.98979 h -1.0137 v 1.01367 h -0.9761 v 1.01367 h -1.0137 v 1.01367 h -1.0136 v 0.97613 h -4.0172 v -0.97613 h -0.9761 v -2.02734 h -1.0137 v -5.0308 h 1.0137 v -8.03427 h 0.9761 v -4.99326 h 1.0137 v -7.02059 h 1.0137 v -6.04448 h 0.9761 v -4.99326 h 1.0137 v -8.03426 h 1.0136 v -4.01714 h 1.0137 v -5.0308 h 0.9761 v -4.01714 h 1.0137 v -6.00692 h -3.0035 v 0.97612 h -4.0171 v 1.01367 h -8.0343 v 1.01367 h -5.0308 v 4.01713 h 1.0137 v 21.0618 h -1.0137 v 2.02734 h -0.9761 v 4.01713 h -1.0137 v 1.9898 h -1.0136 v 3.00346 h -1.0137 v 2.02734 h -0.9761 v 1.98979 h -1.0137 v 2.02734 h -1.0137 v 1.01367 h -0.9761 v 1.9898 h -1.0137 v 1.01367 h -1.0136 v 0.97612 h -1.0137 v 1.01367 h -0.9761 v 1.01367 h -1.0137 v 1.01367 h -1.0137 v 0.97613 h -1.0136 v 1.01367 h -0.9762 v 1.01367 h -1.0136 v 1.01367 h -1.0137 v 0.97612 h -1.9898 v 1.01367 h -1.0137 v 1.01367 h -2.0273 v 1.01367 h -1.9898 v 0.97612 h -1.9898 v 1.01367 h -2.0273 v 1.01367 h -1.9898 v 1.01367 h -3.041 v 0.97613 h -3.0035 v 1.01367 h -4.0171 v 1.01367 h -7.0206 v 0.97612 h -4.0172 v 1.01367 h -19.072 v -1.01367 h -5.0308 v -0.97612 h -3.0034 v -2.02734 h 1.0136 v -3.00347 h 1.0137 v -3.00346 h 0.9761 v -4.01713 h 1.0137 v -4.01714 h 1.0137 v -2.02734 h 1.0136 v -3.97959 h 0.9762 v -3.04101 h 1.0136 v -3.00346 h 1.0137 v -4.01713 h 1.0137 v -3.00347 h 0.9761 v -2.02734 h 1.0137 v -3.97959 h 1.0136 v -4.01713 h 1.0137 v -2.02734 h 0.9761 v -4.01713 h 1.0137 v -3.00347 h 1.0137 v -2.02734 h -9.048 v -0.97612 h -1.0136 v -1.01367 h -0.9762 v -4.01714 h 0.9762 v -1.98979 h 1.0136 v -1.01367 h 2.0274 v -1.01367 h 0.9761 v -1.01367 h 1.0137 v -0.97612 h 2.0273 v -1.01367 h 1.9898 v -1.01367 h 1.9898 v -1.01367 h 1.0137 v -0.97613 h 2.0273 v -1.01367 h 0.9761 v -1.01367 h 1.0137 v -1.98979 h 1.0137 v -4.01714 h 1.0136 v -5.0308 h 0.9762 v -1.9898 h 1.0136 v -4.01713 h 1.0137 v -2.02734 h 1.0137 v -4.01714 h 0.9761 v -1.98979 h 1.0137 v -4.01713 h 1.0136 v -4.01714 h 1.0137 v -3.00346 h 0.9761 v -3.04101 h 1.0137 v -3.00347 h 1.0137 v -4.01713 h 0.9761 v -1.98979 h 1.0137 v -4.01714 h 1.0136 v -4.01713 h 1.0137 v -2.02734 h 0.9761 v -3.00347 h 1.0137 v -4.01713 h 1.0137 v -3.00346 h 1.0136 v -3.00347 h 0.9762 v -4.01713 h 1.0136 v -4.01714 h 1.0137 v -1.98979 h 1.0137 v -4.01714 h 0.9761 v -3.041 h 1.0137 v -3.00347 h 1.0136 v -3.00346 h 1.0137 v -4.01714 h 0.9761 v -1.98979 h 1.0137 v -4.01714 h 1.0137 v -1.01366 H 1454.95 Z"
     style="fill:#5688c7;fill-opacity:1;fill-rule:evenodd;stroke:none"
     inkscape:connector-curvature="0" />
  <path
     id="path4518"
     d="m 1481.0426,434.97589 h -1.0137 v 4.01713 h -0.9761 v 4.01713 h -1.0137 v 1.9898 h -1.0136 v 4.01713 h -1.0137 v 2.02734 h -0.9761 v 4.01713 h -1.0137 v 4.01714 h -1.0137 v 3.00346 h -0.9761 v 4.01714 h -1.0137 v 1.98979 h -1.0136 v 4.01714 h -1.0137 v 2.02733 h -0.9761 v 4.01714 h -1.0137 v 3.00346 h -1.0137 v 4.01714 h -1.0136 v 4.01713 h -0.9762 v 1.9898 h -1.0136 v 4.01713 h -1.0137 v 2.02734 h -1.0137 v 3.97959 h -0.9761 v 3.04101 h -1.0137 v 4.01713 h -1.0136 v 4.01713 h -1.0137 v 1.9898 h -0.9761 v 4.01713 h -1.0137 v 3.00347 h -1.0137 v 4.01713 h -0.9761 v 2.02734 h -1.0137 v 4.01713 h -1.0136 v 4.01714 h -1.0137 v 1.9898 h 2.0273 v -1.01367 h 3.0035 v -0.97613 h 3.0035 v -1.01367 h 3.0034 v -1.01367 h 4.0172 v -1.01367 h 18.0958 v 1.01367 h 3.0035 v 1.01367 h 1.9898 v 1.01367 h 2.0273 v 0.97613 h 1.0137 v 1.01367 h 0.9761 v 1.01367 h 1.0137 v 0.97612 h 1.0137 v 1.01367 h 0.9761 v 2.02734 h 1.0137 v 0.97613 h 4.0171 v -0.97613 h 9.0479 v -1.01367 h 6.007 v -1.01367 h 6.0444 v -1.01367 h 7.0206 v 4.01714 h -1.0136 v 4.01713 h -1.0137 v 5.0308 h -0.9761 v 4.01714 h -1.0137 v 8.03427 h -1.0137 v 1.98979 h -1.0136 v 7.05814 h -0.9762 v 6.00693 h -1.0136 v 4.01714 h -1.0137 v 7.02059 h -1.0137 v 6.00693 h -0.9761 v 3.04101 h 0.9761 v -2.02734 h 1.0137 v -1.01367 h 1.0137 v -0.97612 h 1.0136 v -2.02734 h 0.9762 v -0.97613 h 1.0136 v -1.01367 h 1.0137 v -1.01367 h 1.0137 v -1.01367 h 0.9761 v -1.98979 h 1.0137 v -1.01367 h 1.0136 v -1.01367 h 1.0137 v -0.97612 h 0.9761 v -1.01367 h 1.0137 v -2.02734 h 1.0137 v -0.97613 h 0.9761 v -1.01367 h 1.0137 v -1.01367 h 1.0136 v -1.01367 h 1.0137 v -0.97612 h 0.9761 v -1.01367 h 1.0137 v -1.01367 h 1.0137 v -0.97613 h 1.0136 v -1.01367 h 1.9898 v -1.01367 h 1.0137 v -1.01367 h 1.0137 v -0.97612 h 1.9898 v -1.01367 h 4.0171 v 1.01367 h 1.9898 v 1.98979 h 1.0137 v 1.01367 h 1.0136 v 3.00347 h 1.0137 v 3.00346 h 0.9761 v 7.0206 h 1.0137 v 5.0308 h 1.0137 v -1.98979 h 1.0136 v -3.04101 h 0.9762 v -1.98979 h 1.0136 v -3.00347 h 1.0137 v -2.02734 h 1.0137 v -3.00346 h 0.9761 v -3.00347 h 1.0137 v -2.02734 h 1.0136 v -1.98979 h 1.0137 v -3.00346 h 0.9761 v -3.04101 h 1.0137 v -1.9898 h 1.0137 v -3.00346 h 0.9761 v -2.02734 h 1.0137 v -3.00347 h 1.0136 v -4.01713 h 1.0137 v -1.98979 h 0.9761 v -3.04101 h 1.0137 v -1.9898 h 1.0137 v -4.01713 h 9.0479 v 1.01367 h 9.0104 v 0.97612 h 10.0616 v 1.01367 h 6.0069 v 1.01367 h 4.0171 v 1.01367 h 4.0171 v -2.02734 h 1.0137 v -3.00346 h 0.9761 v -6.00694 h 1.0137 v -4.01713 h -95.3599 v -30.10973 h 80.3051 v -1.01367 h -1.0137 v -1.01367 h -0.9761 v -1.01367 h -1.0137 v -0.97613 h -1.0136 v -1.01366 h -1.9898 v -1.01367 h -1.0137 v -1.01367 h -1.0137 v -0.97613 h -1.0136 v -1.01367 h -0.9762 v -1.01367 h -1.0136 v -1.01367 h -1.0137 v -0.97612 h -1.0137 v -1.01367 h -0.9761 v -1.01367 h -1.0137 v -1.01367 h -1.0136 v -1.9898 h -1.0137 v -1.01367 h -0.9761 v -0.97612 h -1.0137 v -1.01367 h -1.0137 v -1.01367 h -0.9761 v -1.01367 h -1.0137 v -1.98979 h -1.0136 v -1.01367 h -1.0137 v -1.01367 h -0.9761 v -1.9898 h -1.0137 v -1.01367 h -1.0137 v -1.98979 h -1.0136 v -1.01367 h -0.9762 v -2.02734 h -1.0136 v -0.97613 h -1.0137 v -2.02734 h -1.0137 v -1.98979 h -0.9761 v -1.01367 h -1.0137 v -1.9898 h -1.0136 v -2.02733 h -1.0137 v -1.9898 h -0.9761 v -2.02734 h -1.0137 v -1.98979 h -1.0137 v -2.02734 h -0.9761 v -1.9898 h -1.0137 v -3.00346 h -1.0136 v -1.01367 h -7.0206 v -1.01367 h -7.0206 v -1.01367 h -12.0514 v -0.97613 h -11.0378 v -1.01366 h -19.072 v -1.01367 h -28.1199 z"
     style="fill:#5688c7;fill-opacity:1;fill-rule:evenodd;stroke:none"
     inkscape:connector-curvature="0" />
  <path
     id="path4520"
     d="m 1095.5855,627.68568 h 18.0583 v -78.27779 h 1.0137 v 1.01367 h 1.0136 v 1.98979 h 1.0137 v 1.01367 h 0.9761 v 1.9898 h 1.0137 v 2.02734 h 1.0137 v 0.97612 h 1.0136 v 2.02734 h 0.9762 v 1.9898 h 1.0136 v 1.01367 h 1.0137 v 2.02734 h 1.0137 v 0.97612 h 0.9761 v 2.02734 h 1.0137 v 1.98979 h 1.0136 v 1.01367 h 1.0137 v 2.02734 h 0.9761 v 0.97613 h 1.0137 v 2.02734 h 1.0137 v 1.98979 h 0.9761 v 1.01367 h 1.0137 v 1.9898 h 1.0136 v 1.01367 h 1.0137 v 2.02734 h 0.9761 v 1.98979 h 1.0137 v 1.01367 h 1.0137 v 1.98979 h 1.0136 v 2.02734 h 0.9762 v 1.01367 h 1.0136 v 1.9898 h 1.0137 v 1.98979 h 1.0137 v 1.01367 h 0.9761 v 2.02734 h 1.0137 v 0.97613 h 1.0136 v 2.02734 h 1.0137 v 1.98979 h 0.9761 v 1.01367 h 1.0137 v 2.02734 h 1.0137 v 0.97612 h 0.9761 v 2.02734 h 1.0137 v 1.9898 h 1.0136 v 1.01367 h 1.0137 v 1.98979 h 0.9761 v 1.01367 h 1.0137 v 2.02734 h 1.0137 v 1.9898 h 1.0136 v 1.01367 h 0.9762 v 1.98979 h 1.0136 v 2.02734 h 1.0137 v 1.98979 h 21.0618 v -107.4114 h -18.0583 v 78.31534 h -1.0137 v -1.01367 h -0.9761 v -1.98979 h -1.0137 v -1.01367 h -1.0137 v -1.9898 h -1.0136 v -1.01367 h -0.9762 v -2.02734 h -1.0136 v -1.98979 h -1.0137 v -1.01367 h -1.0137 v -1.98979 h -0.9761 v -2.02734 h -1.0137 v -1.01367 h -1.0136 v -1.9898 h -1.0137 v -1.01367 h -0.9761 v -1.98979 h -1.0137 v -2.02734 h -1.0137 v -0.97613 h -0.9761 v -2.02734 h -1.0137 v -1.98979 h -1.0136 v -1.01367 h -1.0137 v -2.02734 h -0.9761 v -0.97612 h -1.0137 v -2.02734 h -1.0137 v -1.9898 h -1.0136 v -1.01367 h -0.9762 v -2.02734 h -1.0136 v -0.97612 h -1.0137 v -2.02734 h -1.0137 v -1.9898 h -0.9761 v -1.01367 h -1.0137 v -1.98979 h -1.0136 v -1.01367 h -1.0137 v -2.02734 h -0.9761 v -1.98979 h -1.0137 v -1.01367 h -1.0137 v -1.9898 h -0.9761 v -2.02734 h -1.0137 v -1.01367 h -1.0136 v -1.98979 h -1.0137 v -1.01367 h -0.9761 v -1.9898 h -1.0137 v -2.02734 h -1.0137 v -0.97613 h -1.0136 v -2.02733 h -0.9762 v -1.01367 h -1.0136 v -1.9898 h -1.0137 v -2.02734 h -1.0137 v -0.97612 h -0.9761 v -2.02734 h -1.0137 v -1.01367 h -20.0856 z"
     style="fill:#5789c6;fill-opacity:1;fill-rule:evenodd;stroke:none"
     inkscape:connector-curvature="0" />
  <path
     id="path4522"
     d="m 1298.3569,589.54168 h -1.0137 v 4.01714 h -0.9761 v 3.00346 h -1.0137 v 1.01367 h -1.0137 v 2.02734 h -1.0136 v 0.97613 h -0.9762 v 2.02734 h -1.0136 v 1.01367 h -1.0137 v 0.97612 h -1.0137 v 1.01367 h -1.9898 v 1.01367 h -1.0136 v 1.01367 h -1.9898 v 0.97612 h -2.0274 v 1.01367 h -3.0034 v 1.01367 h -1.9898 v 1.01367 h -31.1234 v -75.31187 h 29.096 v 1.01367 h 4.0172 v 1.01367 h 3.0034 v 0.97612 h 2.0274 v 1.01367 h 1.9898 v 1.01367 h 1.0136 v 1.01367 h 1.9898 v 0.97613 h 1.0137 v 1.01367 h 1.0137 v 1.01367 h 1.0136 v 1.98979 h 0.9762 v 1.01367 h 1.0136 v 2.02734 h 1.0137 v 1.98979 h 1.0137 v 2.02734 h 0.9761 v 3.97959 h 1.0137 v 4.01714 h 1.0136 v 23.08913 h -1.0136 z m -71.2572,38.144 h 49.1817 v -0.97612 h 7.0206 v -1.01367 h 3.0035 v -1.01367 h 4.0171 v -1.01367 h 2.0273 v -0.97612 h 1.9898 v -1.01367 h 2.0274 v -1.01367 h 1.9898 v -1.01367 h 1.0136 v -0.97613 h 1.9898 v -1.01367 h 1.0137 v -1.01367 h 1.0137 v -1.01367 h 0.9761 v -0.97612 h 1.0137 v -1.01367 h 1.0136 v -1.01367 h 1.0137 v -1.9898 h 0.9761 v -1.01367 h 1.0137 v -1.98979 h 1.0137 v -1.01367 h 1.0136 v -2.02734 h 0.9762 v -1.98979 h 1.0136 v -3.00347 h 1.0137 v -2.02734 h 1.0137 v -4.01713 h 0.9761 v -4.01714 h 1.0137 v -7.02059 h 1.0136 v -17.04466 h -1.0136 v -6.04448 h -1.0137 v -4.99326 h -0.9761 v -4.01713 h -1.0137 v -2.02734 h -1.0137 v -3.00346 h -1.0136 v -2.02734 h -0.9762 v -1.9898 h -1.0136 v -1.01367 h -1.0137 v -1.98979 h -1.0137 v -1.01367 h -0.9761 v -1.01367 h -1.0137 v -1.9898 h -1.0136 v -1.01367 h -1.0137 v -1.01367 h -0.9761 v -0.97613 h -1.0137 v -1.01366 h -1.9898 v -1.01367 h -1.0137 v -1.01367 h -1.0136 v -0.97613 h -1.9898 v -1.01367 h -2.0274 v -1.01367 h -1.9898 v -1.01367 h -2.0273 v -0.97612 h -4.0171 v -1.01367 h -3.0035 v -1.01367 h -6.0069 v -1.01367 h -50.1954 z"
     style="fill:#5789c6;fill-opacity:1;fill-rule:evenodd;stroke:none"
     inkscape:connector-curvature="0" />
  <path
     id="path4524"
     d="m 743.27907,567.46622 h 0.97612 v -7.0206 h 1.01367 v -4.01713 h 1.01367 v -1.9898 h 1.01367 v -3.04101 h 0.97613 v -1.98979 h 1.01367 v -2.02734 h 1.01367 v -0.97612 h 0.97612 v -1.01367 h 1.01367 v -2.02734 h 1.01367 v -0.97613 h 1.01367 v -1.01367 h 0.97613 v -1.01367 h 1.01367 v -1.01367 h 2.02734 v -0.97612 h 0.97612 v -1.01367 h 2.02734 v -1.01367 h 1.98979 v -0.97613 h 3.04101 v -1.01367 h 3.97959 v -1.01367 h 12.0514 v 1.01367 h 3.04101 v 1.01367 h 3.00347 v 0.97613 h 1.98979 v 1.01367 h 2.02734 v 1.01367 h 0.97613 v 0.97612 h 1.01367 v 1.01367 h 2.02734 v 1.01367 h 0.97612 v 1.01367 h 1.01367 v 1.9898 h 1.01367 v 1.01367 h 1.01367 v 1.01367 h 0.97612 v 1.98979 h 1.01367 v 2.02734 h 1.01367 v 1.98979 h 1.01367 v 2.02734 h 0.97613 v 3.97959 h 1.01367 v 2.02734 h 1.01367 v 9.04794 h 0.97612 v 11.03773 h -0.97612 v 6.00693 H 806.502 v 3.00346 h -1.01367 v 4.01714 h -0.97613 v 2.02734 h -1.01367 v 1.98979 h -1.01367 v 2.02734 h -1.01367 v 1.9898 h -0.97612 v 1.01367 h -1.01367 v 1.01367 h -1.01367 v 1.98979 h -1.01367 v 1.01367 h -0.97612 v 1.01367 h -2.02734 v 0.97612 h -1.01367 v 1.01367 h -0.97613 v 1.01367 h -2.02734 v 1.01367 h -1.98979 v 0.97613 h -3.00347 v 1.01367 h -4.01713 v 1.01367 h -12.0514 v -1.01367 h -3.00347 v -1.01367 h -3.04101 v -0.97613 h -1.98979 v -1.01367 h -2.02734 v -1.01367 h -1.98979 v -1.01367 h -1.01367 v -0.97612 h -1.01367 v -1.01367 h -0.97613 v -1.01367 h -1.01367 v -1.01367 h -1.01367 v -0.97612 h -1.01367 v -2.02734 h -0.97612 v -1.01367 H 749.286 v -1.9898 h -1.01367 v -2.02734 h -0.97613 v -3.00346 h -1.01367 v -1.9898 h -1.01367 v -4.01713 h -1.01367 v -7.0206 h -0.97612 z m 23.08913,-48.16807 h -5.0308 v 0.97613 h -2.02734 v 1.01367 h -3.00346 v 1.01367 h -1.9898 v 1.01367 h -3.04101 v 0.97612 h -0.97612 v 1.01367 h -2.02734 v 1.01367 h -1.9898 v 1.01367 h -1.01367 v 0.97613 h -1.01367 v 1.01367 h -0.97612 v 1.01367 h -1.01367 v 1.01366 h -1.01367 v 0.97613 h -1.01367 v 1.01367 h -0.97612 v 1.01367 h -1.01367 v 1.01367 h -1.01367 v 0.97613 h -1.01367 v 1.01367 h -0.97613 v 1.98979 h -1.01367 v 1.01367 h -1.01367 v 2.02734 h -1.01367 v 1.9898 h -0.97612 v 2.02734 H 730.214 v 1.98979 h -1.01367 v 2.02734 h -0.97613 v 4.01713 h -1.01367 v 1.9898 h -1.01367 v 5.0308 h -1.01367 v 4.01714 h -0.97612 v 17.04466 h 0.97612 v 4.01713 h 1.01367 v 5.0308 h 1.01367 v 1.9898 h 1.01367 v 4.01713 h 0.97613 v 2.02734 h 1.01367 v 3.00347 h 1.01367 v 1.98979 h 0.97612 v 1.01367 h 1.01367 v 2.02734 h 1.01367 v 0.97612 h 1.01367 v 2.02734 h 0.97613 v 1.01367 h 1.01367 v 0.97613 h 1.01367 v 2.02734 h 1.01367 v 0.97612 h 0.97612 v 1.01367 h 1.01367 v 1.01367 h 2.02734 v 1.01367 h 0.97612 v 0.97613 h 1.01367 v 1.01367 h 1.01367 v 1.01367 h 1.9898 v 1.01367 h 1.01367 v 0.97612 h 1.98979 v 1.01367 h 2.02734 v 1.01367 h 1.9898 v 1.01367 h 3.04101 v 0.97612 h 3.00346 v 1.01367 h 5.0308 v 1.01367 h 19.072 v -1.01367 h 4.99326 v -1.01367 h 2.02734 v -0.97612 h 3.00347 v -1.01367 h 1.98979 v -1.01367 h 2.02734 v -1.01367 h 1.98979 v -0.97612 h 2.02734 v -1.01367 h 1.01367 v -1.01367 h 1.9898 v -1.01367 h 1.01367 v -0.97613 h 0.97612 v -1.01367 h 1.01367 v -1.01367 h 1.01367 v -1.01367 h 1.01367 v -0.97612 h 0.97613 v -1.01367 h 1.01367 v -1.01367 h 1.01367 v -0.97613 h 1.01367 v -2.02734 h 0.97612 v -1.01367 h 1.01367 v -1.98979 h 1.01367 v -1.01367 h 1.01367 v -1.98979 h 0.97612 v -2.02734 h 1.01367 v -1.9898 h 1.01367 v -4.01713 h 1.01367 v -2.02734 h 0.97613 v -4.01714 h 1.01367 v -3.00346 h 1.01367 V 564.46276 H 825.574 v -6.04448 h -1.01367 v -3.97959 h -0.97613 v -2.02734 h -1.01367 v -3.00346 h -1.01367 v -3.00346 h -1.01367 v -2.02734 h -0.97612 v -1.9898 h -1.01367 v -1.01367 h -1.01367 v -2.02734 h -1.01367 v -0.97612 h -0.97612 v -2.02734 h -1.01367 v -0.97613 h -1.01367 v -1.01367 h -1.01367 v -1.01367 h -0.97613 v -1.01367 h -1.01367 v -0.97613 h -1.01367 v -1.01366 h -1.01367 v -1.01367 h -0.97612 v -1.01367 h -2.02734 v -0.97613 h -0.97613 v -1.01367 h -1.01367 v -1.01367 h -2.02734 v -1.01367 h -1.98979 v -0.97612 h -2.02734 v -1.01367 h -1.98979 v -1.01367 h -3.00347 v -1.01367 h -3.04101 v -0.97613 h -3.97959 v -1.01367 h -19.072 z"
     style="fill:#5688c7;fill-opacity:1;fill-rule:evenodd;stroke:none"
     inkscape:connector-curvature="0" />
  <path
     id="path4526"
     d="m 671.98433,561.45929 h -0.97613 v 0.97613 h -1.01367 v 2.02734 h -1.01367 v 1.01367 h -1.01367 v 0.97612 h -0.97612 v 1.01367 h -1.01367 v 1.01367 h -2.02734 v 1.01367 h -1.9898 v 0.97612 h -5.0308 v 1.01367 h -30.10973 v -35.14053 h 34.12686 v 1.01367 h 3.00347 v 1.01367 h 2.02734 v 0.97612 h 1.98979 v 1.01367 h 1.01367 v 2.02734 h 1.01367 v 0.97613 h 1.01367 v 2.02734 h 0.97613 v 4.01713 h 1.01367 v 8.03427 h -1.01367 z m -64.2366,66.22639 h 19.072 v -41.14746 h 38.144 v -1.01367 h 3.00346 v -0.97612 h 4.01714 v -1.01367 h 2.02734 v -1.01367 h 1.98979 v -1.01367 h 2.02734 v -0.97613 h 0.97613 v -1.01367 h 2.02733 v -1.01367 h 1.01367 v -1.01367 h 0.97613 v -0.97612 h 1.01367 v -1.01367 h 1.01367 v -1.01367 h 1.01367 v -1.9898 h 0.97612 v -2.02734 h 1.01367 v -1.98979 h 1.01367 v -3.00346 h 1.01367 v -2.02734 h 0.97613 v -19.072 h -0.97613 v -1.9898 h -1.01367 v -4.01713 h -1.01367 v -2.02734 h -1.01367 v -0.97613 h -0.97612 v -2.02734 h -1.01367 v -1.01367 h -1.01367 v -1.98979 h -1.01367 v -1.01367 h -0.97613 v -1.01367 h -2.02734 v -0.97613 h -1.01366 v -1.01367 h -1.9898 v -1.01367 h -1.01367 v -1.01367 H 672.998 v -0.97612 h -3.00347 v -1.01367 h -2.02734 v -1.01367 h -8.03426 v -1.01367 h -52.1852 z"
     style="fill:#5789c6;fill-opacity:1;fill-rule:evenodd;stroke:none"
     inkscape:connector-curvature="0" />
  <path
     id="path4528"
     d="m 997.222,581.50742 h 1.0137 v -1.9898 h 0.9761 v -3.00346 h 1.0137 v -4.01714 h 1.0136 v -2.02734 h 1.0137 v -3.00346 h 0.9761 v -1.98979 h 1.0137 v -4.01714 h 1.0137 v -2.02734 h 1.0136 v -3.00346 h 0.9762 v -4.01714 h 1.0136 v -1.98979 h 1.0137 v -3.04101 h 1.0137 v -1.98979 h 0.9761 v -3.00347 h 1.0137 v -3.04101 h 1.0136 v 1.01367 h 1.0137 v 3.00347 h 0.9761 v 3.04101 h 1.0137 v 3.00346 h 1.0137 v 1.98979 h 0.9761 v 4.01714 h 1.0137 v 2.02734 h 1.0136 v 4.01713 h 1.0137 v 3.00347 h 0.9761 v 1.98979 h 1.0137 v 3.04101 h 1.0137 v 3.00346 h 1.0136 v 3.00347 h 0.9762 v 1.98979 h 1.0136 v 4.01714 h 1.0137 v 3.04101 H 997.222 Z m 6.0069,-60.21947 h -0.9761 v 3.00346 h -1.0137 v 2.02734 h -1.0136 v 3.00347 h -1.0137 v 3.00346 h -0.9761 v 2.02734 h -1.0137 v 3.00347 h -1.0137 v 1.98979 h -0.9761 v 3.04101 h -1.0137 v 3.00347 h -1.0136 v 1.98979 h -1.0137 v 4.01713 h -0.9761 v 2.02734 h -1.0137 v 1.9898 h -1.0137 v 3.00346 h -1.0136 v 3.04101 h -0.9762 v 1.9898 h -1.0136 v 3.00346 h -1.0137 v 2.02734 h -1.0137 v 3.00346 h -0.9761 v 3.00347 h -1.0137 v 2.02734 h -1.0136 v 3.00346 h -1.0137 v 1.9898 h -0.9761 v 3.04101 H 978.15 v 1.98979 h -1.0137 v 3.00346 h -0.9761 v 3.04101 h -1.0137 v 1.9898 h -1.0136 v 3.00346 h -1.0137 v 2.02734 h -0.9761 v 3.00347 h -1.0137 v 3.00346 h -1.0137 v 2.02734 h -1.0136 v 3.00346 h -0.97616 v 1.9898 h -1.01367 v 3.00346 h -1.01367 v 3.04101 h -1.01367 v 1.9898 h -0.97613 v 2.02734 h -1.01367 v 3.00346 h -1.01367 v 1.98979 h 20.08564 v -3.00346 h 1.0137 v -3.00346 h 0.9761 v -2.02734 h 1.0137 v -4.01714 h 1.0137 v -3.00346 h 1.0136 v -1.9898 h 0.9762 v -3.00346 h 1.0136 v -3.04101 h 1.0137 v -3.00346 h 1.0137 v -3.00347 h 43.1372 v 3.00347 h 1.0137 v 3.00346 h 1.0137 v 2.02734 h 0.9761 v 3.00346 h 1.0137 v 3.00347 h 1.0136 v 3.00346 h 1.0137 v 3.04101 h 0.9761 v 1.9898 h 1.0137 v 3.00346 h 1.0137 v 3.04101 h 1.0136 v 0.97612 h 20.0482 v -1.98979 h -0.9762 v -2.02734 h -1.0136 v -1.98979 h -1.0137 v -3.00347 h -1.0137 v -3.04101 h -0.9761 v -1.98979 h -1.0137 v -3.00347 h -1.0136 v -2.02734 h -1.0137 v -3.00346 h -0.9761 v -3.00346 h -1.0137 v -2.02734 h -1.0137 v -3.00347 h -0.9761 v -1.98979 h -1.0137 v -3.00347 h -1.0136 v -2.02734 h -1.0137 v -3.00346 h -0.9761 v -3.00346 h -1.0137 v -2.02734 h -1.0137 v -3.00347 h -1.0136 v -2.02734 h -0.9762 v -3.00346 h -1.0136 v -1.9898 h -1.0137 v -3.00346 h -1.0137 v -3.04101 h -0.9761 v -1.98979 h -1.0137 v -3.00347 h -1.0136 v -2.02734 h -1.0137 v -3.00346 h -0.9761 v -3.00347 h -1.0137 v -2.02734 h -1.0137 v -4.01713 h -0.9761 v -0.97612 h -1.0137 v -3.04101 h -1.0136 v -3.00347 h -1.0137 v -1.98979 h -0.9761 v -3.00347 h -1.0137 v -3.04101 h -1.0137 v -1.98979 h -1.0136 v -3.00347 h -0.9762 v -2.02734 h -1.0136 v -3.00346 h -1.0137 v -2.02734 h -20.0857 z"
     style="fill:#5688c7;fill-opacity:1;fill-rule:evenodd;stroke:none"
     inkscape:connector-curvature="0" />
  <path
     id="path4530"
     d="M 938.99233,626.70956 V 610.64102 H 884.77979 V 521.28795 H 866.72146 V 626.70956 Z"
     style="fill:#5688c7;fill-opacity:1;fill-rule:evenodd;stroke:none"
     inkscape:connector-curvature="0" />
  <path
     id="path4532"
     d="m 1486.0734,552.41135 h -7.0206 v 1.01367 h -6.0445 v 1.01367 h -9.0104 v 0.97613 h -4.0171 v 1.01367 h -9.0479 v 1.01367 h -7.0206 v 0.97612 h -1.0137 v 3.04101 h -1.0137 v 3.00347 h -0.9761 v 3.00346 h -1.0137 v 4.01713 h -1.0136 v 2.02734 h -1.0137 v 3.97959 h -0.9761 v 4.01714 h -1.0137 v 3.04101 h -1.0137 v 3.00346 h -0.9761 v 3.00346 h -1.0137 v 4.01714 h -1.0136 v 4.01713 h -1.0137 v 1.9898 h -0.9761 v 4.01713 h -1.0137 v 3.04101 h -1.0137 v 1.98979 h 26.0926 v -1.01367 h 3.0035 v -0.97612 h 4.0171 v -1.01367 h 3.041 v -1.01367 h 3.0035 v -1.01367 h 1.9898 v -0.97612 h 2.0273 v -1.01367 h 1.0137 v -1.01367 h 1.9898 v -1.01367 h 1.0137 v -0.97613 h 1.9898 v -1.01367 h 1.0136 v -1.01367 h 1.0137 v -1.01367 h 0.9761 v -0.97612 h 1.0137 v -1.01367 h 1.0137 v -1.01367 h 1.0136 v -0.97613 h 0.9762 v -2.02734 h 1.0136 v -1.01367 h 1.0137 v -1.98979 h 1.0137 v -1.01367 h 0.9761 v -1.98979 h 1.0137 v -3.04101 h 1.0136 v -1.9898 h 1.0137 v -3.00346 h 0.9761 v -4.01714 h 1.0137 v -5.0308 h 1.0137 v -12.0514 h -1.0137 v -4.01714 h -7.0206 z"
     style="fill:#5688c7;fill-opacity:1;fill-rule:evenodd;stroke:none"
     inkscape:connector-curvature="0" />
  <path
     id="path4534"
     d="m 1468.9912,539.34628 h -4.9933 v 1.01367 h -4.0171 v 1.01367 h -2.0273 v 1.01367 h -3.0035 v 0.97613 h -1.9898 v 1.01367 h -3.041 v 1.01367 h -1.9898 v 1.01367 h -1.0137 v 1.98979 h -1.0136 v 2.02734 h 6.0444 v -1.01367 h 8.0343 v -1.01367 h 4.9933 v -1.01367 h 8.0342 v -0.97612 h 6.0445 v -1.01367 h 6.0069 v -1.01367 h 4.0172 v -1.01367 h -1.0137 v -0.97613 h -0.9761 v -1.01367 h -1.0137 v -1.01367 h -2.0273 v -1.01367 h -4.0172 v -0.97612 h -11.0377 z"
     style="fill:#5789c6;fill-opacity:1;fill-rule:evenodd;stroke:none"
     inkscape:connector-curvature="0" />
  <path
     id="path4536"
     d="M 938.99233,626.70956 H 866.72146 V 521.28795 h 18.05833 v -1.01367 h -19.072 v 107.4114 h 73.28454 z"
     style="fill:#abc4e3;fill-opacity:1;fill-rule:evenodd;stroke:none"
     inkscape:connector-curvature="0" />
  <path
     id="path4538"
     d="m 1610.5294,520.27428 h 3.0035 v -11.03773 h 1.0136 v 1.01367 h 1.0137 v 2.02733 h 1.0137 v 0.97613 h 0.9761 v 2.02734 h 1.0137 v 1.01367 h 1.0136 v 1.98979 h 1.0137 v 1.9898 h 4.0172 v -18.05833 h -3.0411 v 12.0514 h -0.9761 v -1.01367 h -1.0137 v -1.98979 h -1.0136 v -1.01367 h -1.0137 v -1.9898 h -0.9761 v -2.02734 h -1.0137 v -1.01367 h -1.0137 v -1.98979 h -1.0136 v -1.01367 h -3.0035 z"
     style="fill:#5a8cc7;fill-opacity:1;fill-rule:evenodd;stroke:none"
     inkscape:connector-curvature="0" />
  <path
     id="path4540"
     d="m 1639.663,516.29469 h -1.0137 v 0.97612 h -7.0205 v -12.0514 h 7.0205 v 1.01367 h 1.0137 v 1.01367 h 0.9761 v 8.03427 h -0.9761 z m -11.0753,3.97959 h 11.0753 v -0.97613 h 0.9761 v -1.01367 h 1.0137 v -1.01367 h 1.0137 v -0.97612 h 1.0137 v -9.04794 h -1.0137 v -2.02734 h -1.0137 v -0.97612 h -1.0137 v -1.01367 h -1.9898 v -1.01367 h -10.0616 z"
     style="fill:#588ac7;fill-opacity:1;fill-rule:evenodd;stroke:none"
     inkscape:connector-curvature="0" />
  <path
     id="path4544"
     d="m 1560.3341,507.24675 h 1.0136 v -1.01367 h 1.0137 v -1.01367 h 6.0069 v 1.01367 h 1.0137 v 1.01367 h 1.0137 v 8.03427 h -1.0137 v 1.01367 h -1.0137 v 0.97612 h -0.9761 v 1.01367 h -4.0171 v -1.01367 h -1.0137 v -0.97612 h -1.0137 v -1.01367 h -1.0136 z m 2.0273,-4.01713 h -2.0273 v 1.01367 h -0.9762 v 0.97612 h -1.0136 v 2.02734 h -1.0137 v 9.04794 h 1.0137 v 0.97612 h 1.0136 v 1.01367 h 0.9762 v 1.01367 h 1.0136 v 0.97613 h 8.0343 v -0.97613 h 1.0137 v -1.01367 h 0.9761 v -1.01367 h 1.0137 v -0.97612 h 1.0136 v -9.04794 h -1.0136 v -2.02734 h -1.0137 v -0.97612 h -0.9761 v -1.01367 h -2.0274 v -1.01367 h -6.0069 z"
     style="fill:#598bc8;fill-opacity:1;fill-rule:evenodd;stroke:none"
     inkscape:connector-curvature="0" />
  <path
     id="path4546"
     d="m 1596.4883,511.26389 h 1.0136 v -3.00347 h 0.9762 v -2.02734 h 1.0136 v 1.01367 h 1.0137 v 4.01714 h 1.0137 v 1.98979 h -5.0308 z m -6.0445,9.01039 h 4.0171 v -3.97959 h 8.0343 v 0.97612 h 1.0137 v 3.00347 h 4.0171 v -1.9898 h -1.0137 v -1.98979 h -0.9761 v -3.04101 h -1.0137 v -1.98979 h -1.0136 v -3.00347 h -1.0137 v -2.02734 h -0.9761 v -3.00346 h -1.0137 v -1.01367 h -3.0035 v 1.01367 h -1.0136 v 3.00346 h -1.0137 v 2.02734 h -1.0137 v 3.00347 h -0.9761 v 3.00346 h -1.0137 v 2.02734 h -1.0136 v 3.00346 h -1.0137 z"
     style="fill:#5a8cc7;fill-opacity:1;fill-rule:evenodd;stroke:none"
     inkscape:connector-curvature="0" />
  <path
     id="path4550"
     d="m 1550.31,510.25022 v 1.01367 h -7.0206 v -6.04448 h 7.0206 v 1.01367 h 1.0137 v 4.01714 z m -10.0241,10.02406 h 3.0035 v -7.0206 h 8.0343 v -0.97613 h 1.9898 v -1.01366 h 1.0136 v -6.04448 h -1.0136 v -0.97612 h -1.0137 v -1.01367 h -0.9761 v -1.01367 h -11.0378 z"
     style="fill:#598bc8;fill-opacity:1;fill-rule:evenodd;stroke:none"
     inkscape:connector-curvature="0" />
  <path
     id="path4570"
     d="m 1589.4677,520.27428 v -1.9898 h -9.048 v -16.06853 h -3.0034 v 18.05833 z"
     style="fill:#588ac7;fill-opacity:1;fill-rule:evenodd;stroke:none"
     inkscape:connector-curvature="0" />
  <path
     id="path4606"
     d="m 1589.4677,520.27428 h 0.9761 v -0.97613 h 1.0137 v -1.01367 h -1.0137 v -1.01367 h -9.0104 v -15.05486 h -1.0137 v 16.06853 h 9.048 z"
     style="fill:#bcd1e7;fill-opacity:1;fill-rule:evenodd;stroke:none"
     inkscape:connector-curvature="0" />
  <path
     id="path4618"
     d="m 1550.31,510.25022 h -6.0069 v -5.03081 h -1.0137 v 6.04448 h 7.0206 z"
     style="fill:#a9c2e2;fill-opacity:1;fill-rule:evenodd;stroke:none"
     inkscape:connector-curvature="0" />
  <path
     id="path4630"
     style="fill:#929292;fill-opacity:1;fill-rule:evenodd;stroke:none"
     d="m 1213.0209,484.15762 v -1.01367 h 102.4182 v 1.01367 z m -604.2595,0 v -1.01367 h 101.36693 v 1.01367 z m 559.0949,11.03773 v -21.0618 h 2.0274 v 0.97613 h 0.9761 v 1.01367 h 1.0137 v 1.01367 h 1.0136 v 1.98979 h 1.0137 v 1.01367 h 0.9761 v 1.01367 h 1.0137 v 0.97613 h 1.0137 v 1.01367 h 1.0136 v 2.02734 h 0.9762 v 0.97612 h 1.0136 v 1.01367 h 1.0137 v 1.01367 h 1.0137 v 1.9898 h 0.9761 v 1.01367 h 1.0137 v 1.01367 h 1.0136 v -18.05834 h 1.9898 v 21.0618 h -1.9898 v -1.01367 h -1.0136 v -0.97613 h -1.0137 v -1.01366 h -0.9761 v -1.01367 h -1.0137 v -1.01367 h -1.0137 v -1.9898 h -1.0136 v -1.01367 h -0.9762 v -1.01367 h -1.0136 v -0.97612 h -1.0137 v -2.02734 h -1.0137 v -1.01367 h -0.9761 v -0.97613 h -1.0137 v -1.01367 h -1.0136 v -1.98979 h -1.0137 v -1.01367 h -0.9761 v -1.01367 h -1.0137 v 19.072 z m -383.42977,-21.0618 0,-1.01366 h 7.0206 v 1.01366 h 3.00347 v 0.97613 h 2.02734 v 2.02734 h 0.97612 v 1.98979 h -0.97612 v -0.97612 h -1.01367 v -1.01367 h -1.01367 v -1.01367 h -1.01367 v -1.01367 h -9.0104 v 1.01367 h -1.01367 v 1.01367 h -1.01367 v 4.01713 h 2.02734 v 0.97613 H 787.43 v 1.01367 h 5.0308 v 1.01367 h 3.00347 v 1.01367 h 1.01367 v 0.97612 h 0.97612 v 1.01367 h 1.01367 v 4.01714 h -1.01367 v 1.01367 h -0.97612 v 1.01366 h -1.01367 v 0.97613 h -2.02734 v 1.01367 h -7.99673 v -1.01367 h -2.02734 v -0.97613 h -1.98979 v -2.02733 h -1.01367 v -3.00347 h 1.01367 v 1.9898 h 0.97612 v 2.02734 h 2.02734 v 1.01366 h 1.9898 v 0.97613 h 6.04447 v -0.97613 h 1.9898 v -1.01366 h 1.01367 v -1.01367 h 1.01367 v -4.01714 h -1.01367 v -1.01367 h -2.02734 v -0.97612 h -4.01714 v -1.01367 h -3.97959 v -1.01367 h -2.02734 v -1.01367 h -1.98979 v -1.9898 h -1.01367 v -3.00346 h 1.01367 v -1.01367 h 0.97612 v -1.01367 h 1.01367 v -0.97613 z m 349.30297,19.072 v 0.97613 h -1.9898 v 1.01367 h -7.0206 v -1.01367 h -2.0274 v -0.97613 h -1.9898 v -1.01366 h -1.0136 v -1.01367 h -1.0137 v -1.9898 h -1.0137 v -3.04101 h -0.9761 v -4.01713 h 0.9761 v -3.00347 h 1.0137 v -0.97612 h 1.0137 v -2.02734 h 1.0136 v -1.01367 h 1.9898 v -0.97613 h 3.0035 v -1.01366 h 5.0308 v 1.01366 h 3.0035 v 0.97613 h 2.0273 v 1.01367 h 0.9761 v 1.01367 h 1.0137 v 1.98979 h 1.0137 v 2.02734 h 1.0136 v 6.00693 h -1.0136 v 2.02734 h -1.0137 v 1.9898 h -1.0137 v 1.01367 h -0.9761 v 1.01366 z m 0,0 0,-1.01366 h 1.0136 v -1.01367 h 1.0137 v -1.01367 h 0.9761 v -1.9898 h 1.0137 v -8.03427 h -1.0137 v -1.98979 h -0.9761 v -1.01367 h -1.0137 v -1.01367 h -2.0273 v -1.01367 h -9.0104 v 1.01367 h -2.0273 v 1.01367 h -0.9762 v 1.98979 h -1.0136 v 2.02734 h -1.0137 v 7.0206 h 1.0137 v 1.9898 h 1.0136 v 1.01367 h 0.9762 v 1.01367 h 2.0273 v 1.01366 h 1.9898 v 0.97613 h 5.0308 v -0.97613 z m -259.98744,-2.02733 h -0.97612 v -1.01367 h -1.01367 v -1.9898 h -1.01367 v -8.03427 h 1.01367 v -1.98979 h 1.01367 v -1.01367 h 0.97612 v -1.01367 h 1.01367 v -1.01367 h 1.01367 v -0.97613 h 3.00346 v -1.01366 h 7.0206 v 1.01366 h 1.01367 v 0.97613 h 1.9898 v 1.01367 h 1.01367 v 1.01367 h 1.01367 v 1.98979 h 1.01367 v 2.02734 h 0.97612 v 6.00693 h -0.97612 v 3.00347 h -1.01367 v 1.01367 h -1.01367 v 1.01367 h -1.01367 v 1.01366 h -0.97613 v 0.97613 h -2.02734 v 1.01367 h -8.03427 v -1.01367 h -1.98979 v -0.97613 h -2.02734 z m 0,0 2.02734,0 v 1.01367 h 1.01367 v 1.01366 h 1.98979 v 0.97613 h 5.03081 v -0.97613 h 3.00346 v -1.01366 h 1.01367 v -1.01367 h 0.97613 v -1.01367 h 1.01367 v -1.9898 h 1.01367 v -8.03427 h -1.01367 v -1.98979 h -1.01367 v -1.01367 h -0.97613 v -1.01367 h -2.02734 v -1.01367 h -9.01039 v 1.01367 h -1.01367 v 1.01367 h -1.01367 v 1.01367 h -1.01367 v 0.97612 h -0.97612 v 2.02734 h -1.01367 v 6.00693 h 1.01367 v 2.02734 h 0.97612 z m -138.49726,3.00346 -1.01367,0 v -3.00346 h 1.01367 v -1.9898 h 0.97613 v -2.02734 h 1.01367 v -1.98979 h 1.01367 v -3.04101 h 1.01367 v -1.9898 h 0.97612 v -1.98979 h 1.01367 v -2.02734 h 1.01367 v -1.9898 h 3.00346 v 1.9898 h 1.01367 v 3.00346 h 1.01367 v 2.02734 h 0.97613 v 1.9898 h 1.01367 v 2.02734 h 1.01367 v 1.98979 h 0.97612 v 3.00347 h 1.01367 v 2.02734 h 1.01367 v 1.98979 h -1.01367 v -0.97613 h -1.01367 v -2.02733 h -0.97612 v -1.9898 H 749.286 v -1.01367 h -12.0514 v 1.9898 h -1.01367 v 3.041 h -0.97613 z m 4.01714,-10.02406 0,1.98979 h 9.01039 v -1.98979 h -0.97613 v -2.02734 h -1.01367 v -1.9898 h -1.01367 v -1.98979 h -1.01367 v -2.02734 h -0.97612 v 1.01367 h -1.01367 v 1.98979 h -1.01367 v 2.02734 h -1.01367 v 3.00347 z m 268.99776,-9.04794 0,-0.97613 h 2.0274 v 0.97613 h 0.9761 v 3.04101 h 1.0137 v 1.98979 h 1.0136 v 1.9898 h 1.0137 v 2.02734 h 0.9761 v 1.98979 h 1.0137 v 2.02734 h 1.0137 v 3.00347 h 0.9761 v 2.02733 h 1.0137 v 1.9898 h -1.0137 v -1.01367 h -0.9761 v -1.98979 h -1.0137 v -2.02734 h -1.0137 v -1.9898 h -12.0514 v 1.01367 h -0.9761 v 3.00347 h -1.0137 v 1.98979 h -1.0136 v 1.01367 h -1.0137 v -3.00346 h 1.0137 v -2.02734 h 1.0136 v -1.9898 h 1.0137 v -2.02734 h 0.9761 v -1.98979 h 1.0137 v -3.00347 h 1.0137 v -2.02734 h 1.0136 v -1.98979 h 0.9762 v -2.02734 z m -4.0171,10.06161 0,1.98979 h 10.0616 v -1.98979 h -1.0137 v -2.02734 h -1.0136 v -1.9898 h -1.0137 v -2.02734 h -0.9761 v -1.98979 h -1.0137 v -1.01367 h -1.0137 v 2.02734 h -1.0136 v 1.98979 h -0.9762 v 3.00347 h -1.0136 v 2.02734 z M 831.58093,475.10968 h -1.9898 v 1.01367 h -1.01367 v 1.01367 h -1.01367 v 3.00346 h 1.01367 v 1.01367 h 1.01367 v 0.97613 h 1.9898 v 1.01367 h 6.04447 v 1.01367 h 3.00346 v 1.01367 h 1.01367 v 0.97612 h 1.01367 v 1.01367 h 0.97613 v 4.01714 h -0.97613 v 2.02733 h -2.02734 v 0.97613 h -1.01367 v 1.01367 h -9.01039 v -1.01367 h -2.02734 v -0.97613 h -1.01367 v -1.01366 h -0.97612 v -1.01367 H 825.574 v -3.00347 h 1.01367 v 1.01367 h 0.97612 v 1.9898 h 1.01367 v 1.01367 h 1.01367 v 1.01366 h 3.00347 v 0.97613 h 5.0308 v -0.97613 h 1.98979 v -1.01366 h 1.01367 v -1.01367 h 1.01367 v -4.01714 h -1.01367 v -1.01367 h -1.98979 v -0.97612 h -3.04101 v -1.01367 h -4.99326 v -1.01367 h -2.02734 v -1.01367 h -1.01367 v -0.97613 h -0.97612 v -5.0308 h 0.97612 v -1.01367 h 1.01367 v -0.97613 h 3.00347 z m 210.80567,0 v -0.97613 h 18.0583 v 0.97613 h -7.9967 v 20.08567 h -2.0273 v -20.08567 z m -116.4218,18.09587 h -2.02734 v -1.01366 h -1.01367 v -1.01367 h -0.97612 v -1.9898 H 920.934 v -3.04101 h -1.01367 v -4.01713 h 1.01367 v -3.00347 h 1.01367 v -0.97612 h 0.97612 v -2.02734 h 1.01367 v -1.01367 h 2.02734 v -0.97613 h 3.00347 v -1.01366 h 5.0308 v 1.01366 h 3.00346 v 0.97613 h 1.9898 v 1.01367 h 1.01367 v 2.02734 h 1.01367 v 1.98979 H 940.006 v -1.01367 h -1.01367 v -1.98979 h -0.97613 v -1.01367 h -2.02734 v -1.01367 h -9.04793 v 1.01367 h -1.9898 v 1.01367 h -1.01367 v 1.98979 h -1.01367 v 2.02734 h -0.97612 v 7.0206 h 0.97612 v 1.9898 h 1.01367 v 1.01367 h 1.01367 v 1.01367 h 1.01367 z m 44.1509,1.9898 v -21.0618 h 2.0274 v 21.0618 z m -44.1509,-1.9898 h 3.00347 v 0.97613 h 5.0308 v -0.97613 h 1.98979 v -1.01366 h 2.02734 v -1.01367 h 0.97613 v -1.9898 h 1.01367 v -2.02734 h 1.98979 v 1.01367 h -0.97612 v 3.00347 H 940.006 v 1.01367 h -1.01367 v 1.01366 h -1.9898 v 0.97613 h -2.02734 v 1.01367 h -7.02059 v -1.01367 h -1.9898 z m 161.5864,1.9898 v -21.0618 h 1.0137 v 21.0618 z M 839.61519,475.10968 h -8.03426 v -1.98979 h 7.05814 v 1.01366 h 0.97612 z m -0.97612,0 3.00346,0 v 2.02734 h 1.01367 v 1.98979 h -1.01367 v -0.97612 h -1.01367 v -2.02734 h -1.98979 z m -86.34961,19.072 h 1.01367 v -0.97613 h 1.01367 v 1.9898 h -2.02734 z m -17.04466,0 0,1.01367 h -2.02734 v -1.9898 h 1.01367 v 0.97613 z" />
  <path
     id="path4634"
     style="fill:#929292;fill-opacity:1;fill-rule:evenodd;stroke:none"
     d="m 1133.7295,666.84335 h -1.0137 v -1.01367 h -0.9761 v 2.02734 h 1.9898 z m -17.0447,0 v 1.01367 h 1.9898 v -2.02734 h -1.0137 v 1.01367 z m 194.7371,0 v 2.02734 h 0.9762 v 0.97613 h 1.0136 v 1.01367 h 2.0274 v -1.01367 h -1.0137 v -0.97613 h -1.0137 v -2.02734 z M 961.06779,649.79869 v 0.97613 h 2.02734 v 1.01367 h 1.01367 v 1.01367 h 0.97613 v 1.98979 h 2.02734 v -1.01367 h -1.01367 v -1.98979 h -1.01367 v -1.01367 h -0.97613 v -0.97613 z m -220.82973,0 v 0.97613 h 2.02734 v 1.01367 h 1.01367 v 1.01367 h 0.97612 v 1.98979 h 2.02734 v -1.98979 h -1.01367 v -1.01367 h -1.01367 v -1.01367 h -0.97612 v -0.97613 z m -8.03427,1.9898 h 1.01367 v -1.01367 h 7.0206 v -1.9898 h -4.99326 v 1.01367 h -3.04101 z m 220.86728,0 h 0.97612 v -1.01367 h 7.0206 v -1.9898 h -7.0206 v 1.01367 h -0.97612 z m -60.25701,18.05833 v 1.01367 h 16.06854 v -1.9898 h -15.05487 v 0.97613 z m 288.10734,0 v 1.01367 h 17.0447 v -1.9898 h -16.031 v 0.97613 z m -331.2446,1.01367 h 0.97613 v -21.0618 h -1.9898 v 19.072 h 1.01367 z m 163.6137,-11.03773 v -2.02734 h -2.0273 v -0.97613 h -0.9761 v -5.0308 h 1.9898 v -1.01367 h 8.0342 v 1.01367 h 1.9898 v 1.01367 h 1.0137 v 1.98979 h 1.0137 v -3.00346 h -1.0137 v -1.01367 h -1.0137 v -0.97613 h -3.0034 v -1.01367 h -4.9933 v 1.01367 h -4.0171 v 0.97613 h -1.0137 v 2.02734 h -1.0137 v 4.01713 h 1.0137 v 0.97613 h 1.0137 v 1.01367 h 1.9898 v 1.01367 z M 787.43,670.86049 h 1.98979 v -21.0618 H 787.43 Z m 393.4914,-1.01367 h 1.0137 v -10.02406 h 15.0548 v -1.01367 h -15.0548 v -8.03427 h 15.0548 v -0.97613 h -16.0685 z m -288.10734,0 h 1.01367 v -10.02406 h 15.05487 v -1.01367 h -15.05487 v -8.03427 h 15.05487 v -0.97613 h -16.06854 z m 120.47644,-11.03773 v 1.01367 h 1.9898 v 1.01367 h 5.0308 v 0.97612 h 3.0035 v 2.02734 h 1.0137 v 3.00346 h -1.0137 v 1.01367 h -1.0137 v 1.01367 h -1.9898 v 0.97613 h -6.0069 v -0.97613 h -3.041 v -1.01367 h -0.9761 v -1.01367 h -1.0137 v -3.00346 h -2.0273 v 1.98979 h 1.0136 v 2.02734 h 1.0137 v 1.01367 h 1.0137 v 0.97613 h 1.9898 v 1.01367 h 9.0479 v -1.01367 h 1.9898 v -0.97613 h 1.0137 v -1.01367 h 1.0136 v -6.04447 h -1.0136 v -0.97612 h -2.0274 v -1.01367 h -3.0034 v -1.01367 z m -344.30964,8.03426 h 1.01367 v 1.01367 h 1.01367 v 1.01367 h 0.97613 v 0.97613 h 2.02734 v 1.01367 h 8.03426 v -1.01367 h 1.9898 v -0.97613 h 1.01367 v -1.01367 h 1.01367 v -1.01367 h 0.97612 v -17.04466 h -0.97612 v 16.03099 h -1.01367 v 1.01367 h -1.01367 v 1.01367 h -1.01367 v 1.01367 h -1.9898 v 0.97613 h -6.04447 v -0.97613 H 672.998 v -1.01367 h -1.01367 v -1.01367 h -0.97613 v -1.01367 h -1.01367 v -16.03099 h -1.01367 z m 180.69594,4.01714 v -1.9898 h -1.01367 v -1.01367 h -1.01367 v -1.01367 h -1.01367 v -1.98979 h -0.97612 v -1.01367 H 844.646 v -1.01367 h -1.01367 v -1.01367 h -0.97613 v -1.98979 h -1.01367 v -1.01367 h -1.01367 v -1.01367 h -1.01367 v -0.97613 h -0.97612 v -1.01367 h -1.01367 v -2.02734 h -1.01367 v -0.97612 h -1.01367 v -1.01367 h -0.97612 v -1.01367 h -1.01367 v -0.97613 h -2.02734 v 21.0618 h 1.01367 v -19.072 h 1.01367 v 1.01367 h 1.01367 v 0.97612 h 0.97612 v 1.01367 h 1.01367 v 2.02734 h 1.01367 v 0.97613 h 1.01367 v 1.01367 h 0.97612 v 1.01367 h 1.01367 v 1.98979 h 1.01367 v 1.01367 h 1.01367 v 1.01367 h 0.97613 v 1.01367 h 1.01367 v 0.97612 h 1.01367 v 2.02734 h 0.97612 v 1.01367 h 1.01367 v 0.97613 h 1.01367 v 1.01367 z m 461.7451,-4.01714 v -1.98979 h -1.0136 v -1.01367 h -1.0137 v -1.01367 h -1.0137 v -1.01367 h -0.9761 v -0.97612 h -1.0137 v -1.01367 h -1.0136 v -1.01367 h -1.0137 v -1.01367 h 1.0137 v -0.97613 h 1.0136 v -1.01367 h 1.0137 v -1.01367 h 1.9898 v -1.01367 h 1.0137 v -0.97612 h 1.0136 v -1.01367 h 0.9762 v -1.01367 h 2.0273 v -0.97613 h -3.0035 v 0.97613 h -1.0136 v 1.01367 h -1.0137 v 1.01367 h -1.0137 v 0.97612 h -1.9898 v 1.01367 h -1.0136 v 1.01367 h -1.0137 v 1.01367 h -0.9761 v 0.97613 h -2.0274 v 1.01367 h -0.9761 v 1.01367 h -1.0137 v 1.01367 h -2.0273 v -11.03774 h -0.9761 v 21.0618 h 0.9761 v -8.03427 h 2.0273 v -1.01367 h 1.0137 v -0.97612 h 0.9761 v -1.01367 h 3.0035 v 1.01367 h 1.0137 v 0.97612 h 1.0136 v 1.01367 h 1.0137 v 1.01367 h 0.9761 v 1.01367 h 1.0137 v 0.97612 h 1.0137 v 1.01367 z M 732.20379,651.78849 v -1.01367 H 730.214 v 2.02734 h -1.01367 v 4.01713 h 1.01367 v 0.97613 h 1.01367 v 1.01367 h 1.98979 v 1.01367 h 3.00347 v 1.01367 h 6.04447 v 0.97612 h 1.98979 v 2.02734 h 1.01367 v 3.00346 h -1.01367 v 1.01367 h -0.97612 v 1.01367 h -2.02734 v 0.97613 h -6.00693 v -0.97613 h -3.04101 v -1.01367 h -0.97612 v -1.01367 H 730.214 v -3.00346 h -1.01367 v 4.01713 h 1.01367 v 1.01367 h 1.01367 v 0.97613 h 1.98979 v 1.01367 h 9.04794 v -1.01367 h 1.98979 v -0.97613 h 1.01367 v -1.01367 h 1.01367 v -6.04447 h -1.01367 v -0.97612 h -1.98979 v -1.01367 h -3.04101 v -1.01367 h -6.00693 v -1.01367 h -2.02734 v -0.97613 h -0.97612 v -5.0308 z m 220.86728,0 v -1.01367 h -2.02734 v 2.02734 h -1.01367 v 4.01713 h 1.01367 v 0.97613 h 1.01367 v 1.01367 h 1.98979 v 1.01367 h 3.04101 v 1.01367 h 4.99326 v 0.97612 h 3.00347 v 1.01367 h 1.01367 v 4.01713 h -1.01367 v 1.01367 h -0.97613 v 1.01367 h -2.02734 v 0.97613 h -7.0206 v -0.97613 h -1.98979 v -1.01367 h -1.01367 v -1.01367 h -1.01367 v -3.00346 h -1.98979 v 1.98979 h 0.97612 v 2.02734 h 1.01367 v 1.01367 h 1.01367 v 0.97613 h 1.98979 v 1.01367 h 9.04794 v -1.01367 h 1.9898 v -0.97613 h 1.01367 v -1.01367 h 1.01367 v -6.04447 h -1.01367 v -0.97612 h -1.9898 v -1.01367 h -3.04101 v -1.01367 h -6.00693 v -1.01367 h -1.98979 v -0.97613 h -1.01367 v -5.0308 z m 285.06633,19.072 h 17.0447 v -1.9898 h -15.0549 v -9.04793 h 14.0787 v -1.01367 h -14.0787 v -8.03427 h 15.0549 v -0.97613 h -17.0447 z m -128.4732,-20.08567 h 0.9761 v 2.02734 h 1.0137 v 4.01713 h 1.0137 v 4.01714 h 0.9761 v 1.98979 h 1.0137 v 3.00346 h 1.0136 v 3.04101 h 1.0137 v 1.9898 h 1.9898 v -1.9898 h 1.0137 v -4.01713 h 1.0136 v -2.02734 h 0.9762 v -3.00346 h 1.0136 v -3.00347 h 1.0137 v -3.04101 h 1.0137 v -1.98979 h 0.9761 v 1.98979 h 1.0137 v 3.04101 h 1.0136 v 3.00347 h 1.0137 v 3.00346 h 0.9761 v 2.02734 h 1.0137 v 4.01713 h 1.0137 v 1.9898 h 1.9898 v -1.9898 h 1.0136 v -3.04101 h 1.0137 v -3.00346 h 0.9761 v -3.00346 h 1.0137 v -3.00347 h 1.0137 v -2.02734 h 1.0136 v -4.01713 h 0.9762 v -0.97613 h -1.9898 v 1.9898 h -1.0137 v 3.00346 h -1.0137 v 3.00347 h -0.9761 v 4.01713 h -1.0137 v 2.02734 h -1.0136 v 4.01713 h -1.9898 v -4.01713 h -1.0137 v -3.00346 h -1.0137 v -2.02734 h -0.9761 v -3.00347 h -1.0137 v -3.00346 h -1.0136 v -3.00347 h -3.0035 v 3.00347 h -1.0137 v 3.00346 h -1.0136 v 3.00347 h -0.9762 v 2.02734 h -1.0136 v 3.00346 h -1.0137 v 4.01713 h -1.9898 v -4.01713 h -1.0137 v -3.00346 h -1.0136 v -3.04101 h -1.0137 v -1.9898 h -0.9761 v -4.01713 h -1.0137 v -1.9898 h -1.9898 z m -484.83427,17.0822 h -1.01367 v 1.01367 h -13.06507 v -8.03426 h 13.06507 v 0.97612 h 1.01367 v 1.01367 h 0.97613 v 4.01713 h -0.97613 z m -1.01367,-10.0616 h -1.01367 v 1.01367 h -12.0514 v -8.03427 h 13.06507 v 1.01367 h 1.01367 v 5.0308 h -1.01367 z m -15.05486,13.06507 h 14.04119 v -1.01367 h 2.02734 v -0.97613 h 0.97613 v -1.01367 h 1.01367 v -6.04447 h -1.01367 v -0.97612 h -0.97613 v -1.01367 h -1.01367 v -1.01367 h 1.9898 v -1.9898 h 1.01367 v -4.01713 h -1.01367 v -2.02734 h -0.97613 v -0.97613 H 608.7614 Z" />
</svg>
