<?xml version="1.0" encoding="UTF-8"?>
<!DOCTYPE svg PUBLIC "-//W3C//DTD SVG 1.1//EN" "http://www.w3.org/Graphics/SVG/1.1/DTD/svg11.dtd">
<!-- Creator: CorelDRAW X5 -->
<svg xmlns="http://www.w3.org/2000/svg" xml:space="preserve" width="93.1332mm" height="91.44mm" style="shape-rendering:geometricPrecision; text-rendering:geometricPrecision; image-rendering:optimizeQuality; fill-rule:evenodd; clip-rule:evenodd"
viewBox="0 0 93.1332 91.44"
 xmlns:xlink="http://www.w3.org/1999/xlink">
 <defs>
  <style type="text/css">
   <![CDATA[
    .fil0 {fill:#5788CA}
   ]]>
  </style>
 </defs>
 <g id="Warstwa_x0020_1">
  <metadata id="CorelCorpID_0Corel-Layer"/>
  <g id="_541878104">
   <path id="_541406616" class="fil0" d="M32.226 38.015c0.455,-1.1286 0.8085,-2.7649 1.2063,-3.9607 1.9381,-5.8253 6.8893,-23.5499 8.4713,-27.3004 -1.9234,0 -6.777,0.2452 -8.4288,0.5142 -1.6709,0.272 -6.3842,0.3933 -7.9274,1.0155 -1.9547,4.8373 -4.0398,7.7259 -7.2581,11.8202 -1.272,1.6182 -3.3426,3.2425 -4.851,4.688 -1.1968,1.1468 -4.8148,3.2143 -5.5178,3.8226 0.2153,0.8937 0.2957,1.817 0.4765,2.7033l1.6846 7.4571 1.4413 4.7193c1.6994,5.0985 3.8122,10.4444 6.5277,15.134 0.1896,0.3274 0.3821,0.6987 0.5646,1.0253 2.3596,4.2211 4.9359,7.971 8.1301,11.7431 1.0353,1.2225 1.7341,2.1297 2.8869,3.2737 1.5143,1.5026 3.0175,3.3701 4.7172,4.6233l1.3106 1.0741c3.0107,2.8561 7.6239,5.5388 11.263,7.6165 2.082,-0.8476 2.8258,-1.6337 4.2893,-2.3654l2.4166 -1.558c1.7589,-1.1656 4.4442,-3.1793 5.9115,-4.6213 0.5688,-0.5589 0.9348,-0.7802 1.4906,-1.2917 0.4451,-0.4096 0.8605,-0.8598 1.2921,-1.2913 0.9036,-0.9036 1.7936,-1.7696 2.6871,-2.6787 4.6509,-4.7322 9.8643,-13.1337 12.7975,-18.9996 0.6847,-1.3694 2.671,-5.7625 3.2724,-7.4591 0.5264,-1.4851 2.4483,-6.7526 2.5572,-7.9756 -1.0959,0.002 -1.6316,-0.2381 -2.6117,-0.3693 -2.4433,-0.3271 -5.2643,-0.6243 -7.7224,-0.6243l-5.4414 14.0342c-0.2475,0.7222 -0.6063,1.7295 -0.8818,2.2979 -0.3566,0.7355 -0.6528,1.4056 -1.0299,2.1499l-1.1923 0c-0.7166,-1.4146 -1.0852,-8.2455 -1.5899,-9.3404 -1.0324,0.5299 -0.2044,0.1306 -1.5711,1.6086 -0.0392,0.0423 -0.1451,0.1707 -0.1835,0.214 -0.1188,0.1336 -0.1574,0.1854 -0.2807,0.3155l-6.8167 7.6907c-0.8309,1.0123 -0.3424,0.5761 -1.4705,1.0875l-0.9541 -0.8321c-0.5062,-0.9598 2.8983,-17.134 2.9299,-18.6296 -1.8589,0.1655 -4.2623,0.9534 -6.1607,0.9936 1.2148,2.6582 0.4732,6.7388 -0.4676,9.4689 -2.8359,8.229 -12.1881,10.7474 -20.226,9.8335 -0.6742,-0.0766 -1.7404,-0.2207 -2.3593,-0.2242 0.5499,-1.1881 4.9511,-15.6813 4.9683,-16.4947 -2.1013,0.5062 -3.7712,-0.0865 -2.9979,-1.808 0.5193,-1.156 3.7398,-2.7303 4.648,-3.1001z"/>
   <path id="_541406160" class="fil0" d="M34.3518 36.9612c1.8567,-0.4499 3.7025,-1.8365 7.5565,-1.7964 3.9944,0.0415 4.809,1.8724 6.156,3.3862 1.1359,-0.001 7.1193,-1.1924 9.1416,-1.1924 -0.0009,1.1257 -0.4827,3.259 -0.7125,4.4545l-2.4671 13.4313c0.6243,-0.6998 1.2057,-1.7378 2.0028,-2.568 1.7445,-1.8168 6.557,-9.0764 8.5768,-5.8256 1.0523,1.6938 1.1455,3.7679 1.1455,5.8102 0.6918,-0.4931 5.7814,-14.1064 6.1607,-15.6998 2.2848,0 10.4994,0.6122 12.1226,1.3911l1.1109 -4.4074c-1.1705,-0.4528 -24.8007,-0.1635 -28.1384,-0.1635l0 -8.7442 23.8478 0 -3.627 -3.3285c-3.5314,-3.5314 -4.876,-5.8044 -7.3007,-9.9891 -0.2642,-0.456 -0.3888,-0.9021 -0.5629,-1.2255 -0.3101,-0.5761 -0.33,-0.6284 -0.5701,-1.2186 -0.5652,-1.3897 -0.5808,-1.1769 -2.0187,-1.3597 -1.1252,-0.1431 -1.9991,-0.2825 -3.2026,-0.3746l-13.0753 -0.8359c-2.0898,-0.3168 -4.7861,-0.3094 -6.9827,-0.1071l-3.4252 11.2595c-1.3216,3.9322 -3.3842,11.0325 -4.617,15.2562 -0.3031,1.0386 -1.0414,2.9164 -1.121,3.8473z"/>
   <path id="_541405608" class="fil0" d="M32.3645 42.7244c0.2003,0.4763 0.2009,0.2426 -0.2874,1.6995l-4.0847 13.4041c3.3084,0 4.4593,0.5922 8.4654,-0.2788 4.7761,-1.0384 8.4435,-4.0201 9.9926,-8.6882 0.9921,-2.9897 0.8048,-3.3418 0.8206,-6.1382 0.0057,-1.02 -0.125,-1.3388 -0.2004,-2.1845 -0.7112,0.3694 -5.882,0.9808 -7.1517,1.195 -1.469,0.2477 -6.5905,0.9902 -7.5544,0.9911z"/>
   <path id="_541406208" class="fil0" d="M33.1594 40.7371c3.1695,-0.2823 10.3652,-1.7934 12.9176,-1.7886 -0.6342,-2.343 -5.186,-2.0787 -7.0032,-1.6377 -0.957,0.2322 -4.1049,1.2647 -5.1005,1.8553 -0.7739,0.4591 -0.4625,0.802 -0.8139,1.571z"/>
   <path id="_541407048" class="fil0" d="M81.2525 31.7941l0.7949 0 0 -3.7759 0.8678 1.3183c1.5099,2.3363 1.0106,2.4576 2.5106,2.4576l0 -5.3657c-1.1981,0.0266 -0.7949,-0.1359 -0.7949,3.7759 -0.6453,-0.46 -1.6934,-2.4011 -2.0959,-3.2699 -0.3516,-0.7587 -0.043,-0.506 -1.2825,-0.506l0 5.3657z"/>
   <path id="_541407216" class="fil0" d="M87.8083 27.2218l0.7973 0c0.9608,0 0.8639,0.1205 1.5913,0.5962 0,1.6104 0.4591,3.1827 -1.5913,3.1827l-0.7964 0 -0.0009 -3.7789zm-0.9913 4.5723c2.3266,0 4.3721,0.4344 4.3721,-2.7822 0,-3.0177 -2.3054,-2.5835 -4.3721,-2.5835l0 5.3657z"/>
   <path id="_541897880" class="fil0" d="M66.7436 28.6146c0.687,-2.5468 4.1434,-1.4531 2.9581,1.5643 -0.2726,0.6941 -0.7737,0.8051 -1.5654,0.8218 -0.6655,-0.1795 -0.847,-0.5428 -1.3786,-1.0446l-0.0141 -1.3415zm0.7623 -1.9705c-1.4875,0.61 -1.8788,1.5098 -1.5202,3.3256 0.5298,2.6825 5.4164,2.7555 4.7004,-1.7188 -0.2142,-1.3384 -1.6718,-2.2252 -3.1802,-1.6068z"/>
   <path id="_541867592" class="fil0" d="M78.1068 27.4731l0.7609 2.135 -1.4657 -0.0245 0.7048 -2.1105zm-2.4188 4.321l0.9936 0 0.3696 -1.363 2.2139 -0.0327 0.2444 1.387 1.1468 0.0087 -2.0341 -5.3481 -0.9469 -0.0176c-0.3011,0.4538 -0.8057,1.9783 -1.0201,2.557 -0.3595,0.9704 -0.7318,1.8198 -0.9672,2.8087z"/>
   <path id="_541867832" class="fil0" d="M61.9755 27.2233l0.9968 -0.0268 0.8599 0.1574c0.2713,0.8125 0.1075,0.9291 -0.0681,1.658l-1.7886 0 0 -1.7886zm-0.9936 4.5708l0.9936 0 0 -1.9873c1.2701,0 2.981,0.2205 2.981,-1.5898 0,-0.4849 -0.0504,-1.0089 -0.4034,-1.3852 -0.6421,-0.6846 -2.5912,-0.4034 -3.5712,-0.4034l0 5.3657z"/>
   <polygon id="_75498360" class="fil0" points="71.9121,31.7941 75.4893,31.7941 75.4893,30.9992 72.9058,30.9992 72.9058,26.4284 71.9121,26.4284 "/>
   <path id="_541878080" class="fil0" d="M30.5759 40.7371l0 0.3974 0.795 0c-0.0723,-0.8767 0.3218,-0.496 -0.795,-0.3974z"/>
  </g>
 </g>
</svg>
