<?xml version="1.0" standalone="no"?>
<!DOCTYPE svg PUBLIC "-//W3C//DTD SVG 20010904//EN"
 "http://www.w3.org/TR/2001/REC-SVG-20010904/DTD/svg10.dtd">
<svg version="1.0" xmlns="http://www.w3.org/2000/svg"
 width="660.000000pt" height="660.000000pt" viewBox="0 0 660.000000 660.000000"
 preserveAspectRatio="xMidYMid meet">
<metadata>
Created by potrace 1.11, written by Peter Selinger 2001-2013
</metadata>
<g transform="translate(0.000000,660.000000) scale(0.100000,-0.100000)"
fill="#000000" stroke="none">
<path d="M3205 6080 c-28 -3 -67 -5 -86 -5 -35 1 -37 -1 -49 -50 -7 -27 -15
-54 -19 -60 -3 -5 -6 -14 -7 -20 -2 -9 -46 -156 -145 -480 -22 -71 -42 -137
-44 -145 -2 -8 -27 -87 -55 -175 -29 -88 -53 -164 -54 -170 -2 -5 -6 -17 -9
-25 -6 -16 -86 -286 -92 -310 -2 -8 -13 -46 -25 -84 -12 -38 -23 -76 -25 -85
-2 -9 -15 -54 -30 -101 -14 -47 -28 -96 -31 -110 -3 -14 -14 -50 -25 -80 -12
-30 -22 -62 -24 -70 -4 -21 -35 -121 -45 -147 -9 -22 10 -50 24 -36 3 4 12 8
19 9 7 2 54 19 106 38 85 31 130 45 211 62 46 10 243 12 279 2 144 -35 192
-66 291 -187 35 -42 35 -42 90 -37 30 3 69 8 85 11 44 8 85 14 130 20 22 3 65
10 95 15 30 5 75 11 100 14 25 4 54 8 66 10 11 2 41 6 65 7 l44 3 -2 -59 c-1
-65 -2 -71 -32 -225 -11 -58 -23 -118 -26 -135 -2 -16 -7 -40 -9 -51 -5 -22
-16 -88 -21 -114 -1 -8 -5 -26 -8 -40 -6 -24 -15 -74 -23 -134 -2 -16 -8 -45
-13 -65 -5 -20 -13 -58 -17 -86 -4 -27 -8 -54 -10 -60 -3 -13 -23 -123 -29
-160 -10 -57 -17 -90 -21 -107 -4 -13 -1 -16 10 -12 9 3 16 10 16 15 0 10 -2
7 115 149 240 292 307 362 403 426 61 41 122 49 164 22 57 -37 106 -185 112
-335 2 -52 6 -97 9 -100 9 -8 50 79 122 258 36 90 70 173 75 184 4 11 13 34
19 50 6 17 16 44 22 60 7 17 13 35 15 40 1 6 25 71 54 145 29 74 53 140 54
145 1 6 4 15 7 20 3 6 18 52 35 102 l29 93 115 -5 c110 -5 179 -10 300 -21 30
-3 71 -7 90 -9 80 -7 203 -25 275 -39 11 -2 33 -9 48 -15 24 -10 29 -8 36 12
16 45 73 288 69 293 -3 3 -54 7 -114 9 -112 4 -1392 6 -1701 2 l-171 -2 -4 37
c-2 20 0 48 3 61 4 14 3 30 -1 37 -4 7 -5 24 -1 38 4 14 4 47 1 74 -4 26 -3
53 1 59 4 7 3 25 -1 40 -5 16 -5 29 -1 29 4 0 5 21 1 48 -3 26 -3 59 0 72 3
14 3 41 0 61 -13 70 -72 65 838 65 453 -1 828 2 833 5 5 3 -19 30 -52 60 -155
136 -322 309 -435 452 -68 85 -255 395 -309 512 -86 188 -76 175 -160 181 -27
1 -50 4 -50 5 0 2 -9 3 -100 13 -87 11 -138 15 -250 21 -55 3 -125 8 -155 10
-30 3 -98 7 -150 10 -52 3 -117 7 -145 9 -27 2 -102 7 -165 11 -63 4 -131 8
-150 10 -223 20 -305 23 -385 15z"/>
<path d="M2737 6053 c-1 -1 -58 -4 -127 -7 -69 -3 -134 -7 -145 -10 -11 -2
-52 -7 -90 -10 -39 -4 -81 -8 -94 -11 -12 -2 -59 -7 -104 -10 -104 -7 -145
-12 -281 -31 -65 -9 -86 -22 -102 -61 -62 -150 -257 -499 -286 -511 -4 -2 -8
-8 -8 -14 0 -5 -6 -15 -12 -23 -7 -7 -22 -25 -33 -40 -100 -138 -182 -239
-246 -304 -102 -102 -282 -263 -337 -300 -20 -14 -41 -29 -47 -34 -5 -4 -65
-44 -131 -87 -67 -43 -124 -82 -127 -87 -3 -5 0 -40 8 -78 19 -101 26 -137 30
-160 1 -11 12 -58 23 -105 40 -165 59 -253 68 -304 10 -55 143 -486 164 -531
5 -11 16 -40 24 -65 19 -59 73 -206 90 -245 8 -16 30 -70 51 -120 69 -166 169
-374 234 -483 17 -29 31 -54 31 -56 0 -20 326 -539 350 -556 3 -3 21 -27 40
-55 19 -27 36 -52 39 -55 4 -3 18 -21 32 -40 15 -19 35 -45 45 -56 11 -12 30
-36 44 -54 54 -72 209 -250 295 -339 214 -222 205 -213 335 -319 25 -21 63
-53 85 -73 64 -57 173 -141 260 -201 157 -108 491 -308 514 -308 18 0 105 46
203 106 48 30 92 54 96 54 5 0 20 9 33 20 13 11 74 53 134 92 126 83 261 184
354 266 36 31 85 75 110 96 66 58 430 423 471 474 19 24 40 49 45 55 6 7 33
41 60 77 28 36 52 67 56 70 3 3 21 28 40 55 18 28 37 52 40 55 4 3 48 68 99
145 50 77 105 159 121 182 16 23 29 44 29 48 0 4 15 30 33 58 49 75 97 157
108 181 5 12 20 39 33 61 25 42 171 325 171 335 1 3 14 32 29 65 33 71 43 92
91 205 20 47 40 94 45 105 13 29 140 401 142 415 0 3 5 16 10 30 21 52 45 149
39 157 -3 4 -15 9 -26 9 -26 2 -76 9 -155 22 -36 6 -92 14 -125 17 -33 3 -76
8 -95 11 -40 6 -130 12 -245 16 l-80 3 -53 -135 c-29 -74 -55 -142 -58 -150
-125 -327 -255 -663 -269 -695 -6 -16 -23 -59 -36 -95 -13 -36 -42 -104 -65
-151 l-42 -85 -41 0 c-41 0 -42 1 -57 52 -14 47 -18 75 -29 164 -2 19 -7 46
-10 60 -5 23 -10 70 -20 165 -7 68 -22 164 -31 198 -8 28 -30 20 -65 -25 -18
-24 -37 -47 -43 -53 -6 -5 -38 -41 -71 -80 -33 -38 -62 -72 -65 -75 -3 -3 -41
-45 -85 -95 -44 -49 -84 -95 -90 -101 -5 -6 -37 -42 -70 -80 -33 -37 -67 -75
-75 -84 -8 -8 -37 -42 -64 -73 -27 -32 -62 -65 -77 -73 -26 -13 -30 -12 -61
13 -18 15 -35 28 -37 30 -6 4 -5 78 3 148 6 56 10 80 20 130 2 11 7 40 10 65
3 25 8 56 11 70 7 37 36 202 40 225 2 17 16 94 29 160 5 27 34 182 41 220 3
17 7 44 10 60 3 17 10 53 15 80 5 28 12 70 16 95 3 25 6 50 7 55 3 14 -113 6
-163 -11 -8 -3 -28 -7 -45 -10 -16 -2 -41 -6 -55 -9 -31 -6 -73 -13 -124 -20
-48 -7 -50 -8 -38 -32 29 -54 41 -208 26 -347 -18 -175 -106 -424 -183 -520
-17 -21 -31 -42 -31 -45 0 -7 -92 -102 -136 -142 -25 -22 -103 -76 -169 -116
-81 -50 -292 -129 -370 -139 -11 -1 -20 -3 -20 -4 0 -4 -87 -19 -165 -27 -87
-10 -336 -9 -435 1 -44 4 -95 9 -113 11 -18 2 -35 5 -38 8 -3 3 6 38 20 78 31
94 117 368 121 389 2 8 4 16 5 18 2 1 3 5 5 10 1 4 4 14 8 22 6 16 65 212 73
245 7 27 10 37 17 55 3 8 9 29 13 45 4 17 8 35 10 40 49 168 69 251 62 256 -4
3 -30 3 -57 -1 -66 -8 -135 13 -150 47 -27 59 16 130 119 195 76 48 188 107
193 102 13 -13 27 25 92 241 34 114 66 216 73 235 3 8 6 20 7 25 2 6 16 55 33
110 17 55 46 154 66 220 20 66 40 134 45 150 16 49 64 209 67 220 2 6 5 19 8
30 3 11 33 110 66 220 115 376 122 400 125 415 2 8 4 15 4 15 1 0 27 78 59
173 l59 173 -115 -3 c-62 -2 -114 -4 -115 -5z"/>
<path d="M4327 4663 c-2 -4 -4 -90 -5 -190 0 -134 3 -183 11 -184 7 0 22 -2
35 -3 20 -2 22 1 23 53 1 31 2 63 3 71 1 11 15 16 56 17 75 3 95 9 126 38 15
14 25 25 22 25 -3 0 -2 15 1 33 8 36 -4 94 -24 114 -7 7 -24 17 -37 22 -30 11
-205 15 -211 4z m201 -100 c5 -66 -8 -80 -70 -78 -29 1 -56 3 -60 4 -5 0 -8
28 -8 62 l0 61 68 -4 67 -3 3 -42z"/>
<path d="M4768 4641 c-65 -32 -93 -72 -97 -136 -6 -116 38 -188 129 -211 85
-22 154 9 191 83 23 47 27 140 9 188 -35 92 -133 124 -232 76z m150 -60 c30
-30 32 -38 34 -106 2 -47 -26 -112 -52 -120 -61 -19 -113 -5 -150 43 -22 27
-27 93 -10 137 29 77 122 101 178 46z"/>
<path d="M5099 4652 c-7 -87 -2 -362 6 -363 14 -1 206 -1 228 0 20 1 24 47 5
53 -7 2 -48 3 -90 2 -73 -1 -78 0 -79 20 -1 12 -2 84 -3 161 l-1 140 -32 2
c-24 1 -33 -3 -34 -15z"/>
<path d="M5497 4656 c-3 -6 -5 -14 -6 -19 0 -4 -8 -21 -16 -37 -8 -16 -16 -33
-16 -37 -1 -5 -5 -17 -9 -28 -4 -11 -24 -64 -44 -118 -46 -125 -46 -134 -2
-129 31 4 35 8 41 43 4 21 11 42 17 45 17 11 148 12 154 2 3 -5 8 -25 10 -45
6 -46 5 -45 48 -47 41 -2 43 9 14 75 -9 20 -19 47 -23 60 -4 13 -13 38 -20 54
-7 17 -27 66 -43 110 -30 79 -31 80 -66 81 -19 1 -37 -4 -39 -10z m71 -153
l20 -61 -49 1 c-27 1 -49 4 -49 7 0 3 7 28 16 55 9 28 19 56 21 64 6 22 18 2
41 -66z"/>
<path d="M5759 4653 c-1 -21 -1 -333 0 -350 1 -7 14 -13 29 -13 l28 0 -1 131
c-2 152 -8 153 96 -19 51 -84 68 -104 93 -111 22 -6 34 -5 41 4 11 14 13 360
2 371 -4 4 -17 2 -30 -3 -23 -11 -23 -14 -22 -132 1 -67 -2 -121 -6 -121 -5 0
-16 12 -26 28 -10 15 -20 29 -24 32 -8 7 -64 106 -88 158 -18 38 -23 42 -55
42 -27 0 -36 -4 -37 -17z"/>
<path d="M6152 4481 c0 -134 3 -191 12 -193 17 -6 138 -2 179 6 84 16 119 76
114 201 -6 134 -44 166 -204 171 l-102 4 1 -189z m215 102 c27 -26 29 -33 27
-96 -4 -118 -22 -138 -130 -142 l-41 -2 0 134 0 133 58 0 c48 0 61 -4 86 -27z"/>
<path d="M2845 3908 c-74 -11 -111 -21 -180 -44 -201 -67 -267 -97 -289 -135
-9 -16 -15 -29 -12 -29 3 0 1 -11 -4 -24 -8 -23 -7 -25 18 -21 41 5 124 17
147 21 11 2 40 7 65 10 25 3 52 7 60 9 8 2 33 7 55 10 39 5 57 8 115 20 14 2
45 7 70 10 25 2 59 7 75 10 115 20 190 29 273 34 43 2 7 62 -58 96 -65 34
-229 50 -335 33z"/>
<path d="M3318 3665 c-12 -12 -286 -58 -483 -81 -27 -3 -52 -7 -55 -9 -3 -1
-34 -6 -70 -10 -36 -4 -67 -8 -70 -10 -3 -2 -30 -6 -60 -10 -30 -4 -68 -9 -85
-11 -16 -2 -55 -7 -85 -10 -60 -7 -91 -11 -102 -13 -5 0 -8 -8 -8 -18 0 -9
-15 -66 -34 -127 -19 -61 -49 -158 -66 -216 -17 -58 -36 -116 -40 -130 -5 -14
-28 -88 -50 -165 -23 -77 -44 -147 -47 -155 -6 -13 -15 -46 -54 -180 -24 -83
-26 -78 33 -79 29 -1 78 -4 108 -6 273 -18 479 16 680 114 71 34 97 49 118 69
7 6 17 12 22 12 12 0 180 165 180 177 0 5 8 18 18 29 53 57 137 256 168 399
17 77 16 382 0 414 -7 12 -15 19 -18 16z"/>
<path d="M2170 3642 c0 -25 37 -26 50 -1 10 17 7 19 -20 19 -22 0 -30 -5 -30
-18z"/>
</g>
</svg>
